<?xml version="1.0" encoding="utf-8" standalone="no"?>
<!DOCTYPE svg PUBLIC "-//W3C//DTD SVG 1.1//EN"
  "http://www.w3.org/Graphics/SVG/1.1/DTD/svg11.dtd">
<svg xmlns:xlink="http://www.w3.org/1999/xlink" width="720pt" height="432pt" viewBox="0 0 720 432" xmlns="http://www.w3.org/2000/svg" version="1.1">
 <metadata>
  <rdf:RDF xmlns:dc="http://purl.org/dc/elements/1.1/" xmlns:cc="http://creativecommons.org/ns#" xmlns:rdf="http://www.w3.org/1999/02/22-rdf-syntax-ns#">
   <cc:Work>
    <dc:type rdf:resource="http://purl.org/dc/dcmitype/StillImage"/>
    <dc:date>2024-11-17T22:19:46.529615</dc:date>
    <dc:format>image/svg+xml</dc:format>
    <dc:creator>
     <cc:Agent>
      <dc:title>Matplotlib v3.9.2, https://matplotlib.org/</dc:title>
     </cc:Agent>
    </dc:creator>
   </cc:Work>
  </rdf:RDF>
 </metadata>
 <defs>
  <style type="text/css">*{stroke-linejoin: round; stroke-linecap: butt}</style>
 </defs>
 <g id="figure_1">
  <g id="patch_1">
   <path d="M 0 432 
L 720 432 
L 720 0 
L 0 0 
z
" style="fill: #ffffff"/>
  </g>
  <g id="axes_1">
   <g id="patch_2">
    <path d="M 90 384.48 
L 648 384.48 
L 648 51.84 
L 90 51.84 
z
" style="fill: #ffffff"/>
   </g>
   <g id="matplotlib.axis_1">
    <g id="xtick_1">
     <g id="line2d_1">
      <path d="M 121.463108 384.48 
L 121.463108 51.84 
" clip-path="url(#p1bd5b6dadc)" style="fill: none; stroke: #b0b0b0; stroke-width: 0.8; stroke-linecap: square"/>
     </g>
     <g id="line2d_2">
      <defs>
       <path id="m04e74efcc5" d="M 0 0 
L 0 3.5 
" style="stroke: #000000; stroke-width: 0.8"/>
      </defs>
      <g>
       <use xlink:href="#m04e74efcc5" x="121.463108" y="384.48" style="stroke: #000000; stroke-width: 0.8"/>
      </g>
     </g>
     <g id="text_1">
      <!-- 0.5 -->
      <g transform="translate(113.511546 399.078438) scale(0.1 -0.1)">
       <defs>
        <path id="DejaVuSans-30" d="M 2034 4250 
Q 1547 4250 1301 3770 
Q 1056 3291 1056 2328 
Q 1056 1369 1301 889 
Q 1547 409 2034 409 
Q 2525 409 2770 889 
Q 3016 1369 3016 2328 
Q 3016 3291 2770 3770 
Q 2525 4250 2034 4250 
z
M 2034 4750 
Q 2819 4750 3233 4129 
Q 3647 3509 3647 2328 
Q 3647 1150 3233 529 
Q 2819 -91 2034 -91 
Q 1250 -91 836 529 
Q 422 1150 422 2328 
Q 422 3509 836 4129 
Q 1250 4750 2034 4750 
z
" transform="scale(0.015625)"/>
        <path id="DejaVuSans-2e" d="M 684 794 
L 1344 794 
L 1344 0 
L 684 0 
L 684 794 
z
" transform="scale(0.015625)"/>
        <path id="DejaVuSans-35" d="M 691 4666 
L 3169 4666 
L 3169 4134 
L 1269 4134 
L 1269 2991 
Q 1406 3038 1543 3061 
Q 1681 3084 1819 3084 
Q 2600 3084 3056 2656 
Q 3513 2228 3513 1497 
Q 3513 744 3044 326 
Q 2575 -91 1722 -91 
Q 1428 -91 1123 -41 
Q 819 9 494 109 
L 494 744 
Q 775 591 1075 516 
Q 1375 441 1709 441 
Q 2250 441 2565 725 
Q 2881 1009 2881 1497 
Q 2881 1984 2565 2268 
Q 2250 2553 1709 2553 
Q 1456 2553 1204 2497 
Q 953 2441 691 2322 
L 691 4666 
z
" transform="scale(0.015625)"/>
       </defs>
       <use xlink:href="#DejaVuSans-30"/>
       <use xlink:href="#DejaVuSans-2e" x="63.623047"/>
       <use xlink:href="#DejaVuSans-35" x="95.410156"/>
      </g>
     </g>
    </g>
    <g id="xtick_2">
     <g id="line2d_3">
      <path d="M 223.120969 384.48 
L 223.120969 51.84 
" clip-path="url(#p1bd5b6dadc)" style="fill: none; stroke: #b0b0b0; stroke-width: 0.8; stroke-linecap: square"/>
     </g>
     <g id="line2d_4">
      <g>
       <use xlink:href="#m04e74efcc5" x="223.120969" y="384.48" style="stroke: #000000; stroke-width: 0.8"/>
      </g>
     </g>
     <g id="text_2">
      <!-- 0.6 -->
      <g transform="translate(215.169407 399.078438) scale(0.1 -0.1)">
       <defs>
        <path id="DejaVuSans-36" d="M 2113 2584 
Q 1688 2584 1439 2293 
Q 1191 2003 1191 1497 
Q 1191 994 1439 701 
Q 1688 409 2113 409 
Q 2538 409 2786 701 
Q 3034 994 3034 1497 
Q 3034 2003 2786 2293 
Q 2538 2584 2113 2584 
z
M 3366 4563 
L 3366 3988 
Q 3128 4100 2886 4159 
Q 2644 4219 2406 4219 
Q 1781 4219 1451 3797 
Q 1122 3375 1075 2522 
Q 1259 2794 1537 2939 
Q 1816 3084 2150 3084 
Q 2853 3084 3261 2657 
Q 3669 2231 3669 1497 
Q 3669 778 3244 343 
Q 2819 -91 2113 -91 
Q 1303 -91 875 529 
Q 447 1150 447 2328 
Q 447 3434 972 4092 
Q 1497 4750 2381 4750 
Q 2619 4750 2861 4703 
Q 3103 4656 3366 4563 
z
" transform="scale(0.015625)"/>
       </defs>
       <use xlink:href="#DejaVuSans-30"/>
       <use xlink:href="#DejaVuSans-2e" x="63.623047"/>
       <use xlink:href="#DejaVuSans-36" x="95.410156"/>
      </g>
     </g>
    </g>
    <g id="xtick_3">
     <g id="line2d_5">
      <path d="M 324.77883 384.48 
L 324.77883 51.84 
" clip-path="url(#p1bd5b6dadc)" style="fill: none; stroke: #b0b0b0; stroke-width: 0.8; stroke-linecap: square"/>
     </g>
     <g id="line2d_6">
      <g>
       <use xlink:href="#m04e74efcc5" x="324.77883" y="384.48" style="stroke: #000000; stroke-width: 0.8"/>
      </g>
     </g>
     <g id="text_3">
      <!-- 0.7 -->
      <g transform="translate(316.827268 399.078438) scale(0.1 -0.1)">
       <defs>
        <path id="DejaVuSans-37" d="M 525 4666 
L 3525 4666 
L 3525 4397 
L 1831 0 
L 1172 0 
L 2766 4134 
L 525 4134 
L 525 4666 
z
" transform="scale(0.015625)"/>
       </defs>
       <use xlink:href="#DejaVuSans-30"/>
       <use xlink:href="#DejaVuSans-2e" x="63.623047"/>
       <use xlink:href="#DejaVuSans-37" x="95.410156"/>
      </g>
     </g>
    </g>
    <g id="xtick_4">
     <g id="line2d_7">
      <path d="M 426.436692 384.48 
L 426.436692 51.84 
" clip-path="url(#p1bd5b6dadc)" style="fill: none; stroke: #b0b0b0; stroke-width: 0.8; stroke-linecap: square"/>
     </g>
     <g id="line2d_8">
      <g>
       <use xlink:href="#m04e74efcc5" x="426.436692" y="384.48" style="stroke: #000000; stroke-width: 0.8"/>
      </g>
     </g>
     <g id="text_4">
      <!-- 0.8 -->
      <g transform="translate(418.485129 399.078438) scale(0.1 -0.1)">
       <defs>
        <path id="DejaVuSans-38" d="M 2034 2216 
Q 1584 2216 1326 1975 
Q 1069 1734 1069 1313 
Q 1069 891 1326 650 
Q 1584 409 2034 409 
Q 2484 409 2743 651 
Q 3003 894 3003 1313 
Q 3003 1734 2745 1975 
Q 2488 2216 2034 2216 
z
M 1403 2484 
Q 997 2584 770 2862 
Q 544 3141 544 3541 
Q 544 4100 942 4425 
Q 1341 4750 2034 4750 
Q 2731 4750 3128 4425 
Q 3525 4100 3525 3541 
Q 3525 3141 3298 2862 
Q 3072 2584 2669 2484 
Q 3125 2378 3379 2068 
Q 3634 1759 3634 1313 
Q 3634 634 3220 271 
Q 2806 -91 2034 -91 
Q 1263 -91 848 271 
Q 434 634 434 1313 
Q 434 1759 690 2068 
Q 947 2378 1403 2484 
z
M 1172 3481 
Q 1172 3119 1398 2916 
Q 1625 2713 2034 2713 
Q 2441 2713 2670 2916 
Q 2900 3119 2900 3481 
Q 2900 3844 2670 4047 
Q 2441 4250 2034 4250 
Q 1625 4250 1398 4047 
Q 1172 3844 1172 3481 
z
" transform="scale(0.015625)"/>
       </defs>
       <use xlink:href="#DejaVuSans-30"/>
       <use xlink:href="#DejaVuSans-2e" x="63.623047"/>
       <use xlink:href="#DejaVuSans-38" x="95.410156"/>
      </g>
     </g>
    </g>
    <g id="xtick_5">
     <g id="line2d_9">
      <path d="M 528.094553 384.48 
L 528.094553 51.84 
" clip-path="url(#p1bd5b6dadc)" style="fill: none; stroke: #b0b0b0; stroke-width: 0.8; stroke-linecap: square"/>
     </g>
     <g id="line2d_10">
      <g>
       <use xlink:href="#m04e74efcc5" x="528.094553" y="384.48" style="stroke: #000000; stroke-width: 0.8"/>
      </g>
     </g>
     <g id="text_5">
      <!-- 0.9 -->
      <g transform="translate(520.14299 399.078438) scale(0.1 -0.1)">
       <defs>
        <path id="DejaVuSans-39" d="M 703 97 
L 703 672 
Q 941 559 1184 500 
Q 1428 441 1663 441 
Q 2288 441 2617 861 
Q 2947 1281 2994 2138 
Q 2813 1869 2534 1725 
Q 2256 1581 1919 1581 
Q 1219 1581 811 2004 
Q 403 2428 403 3163 
Q 403 3881 828 4315 
Q 1253 4750 1959 4750 
Q 2769 4750 3195 4129 
Q 3622 3509 3622 2328 
Q 3622 1225 3098 567 
Q 2575 -91 1691 -91 
Q 1453 -91 1209 -44 
Q 966 3 703 97 
z
M 1959 2075 
Q 2384 2075 2632 2365 
Q 2881 2656 2881 3163 
Q 2881 3666 2632 3958 
Q 2384 4250 1959 4250 
Q 1534 4250 1286 3958 
Q 1038 3666 1038 3163 
Q 1038 2656 1286 2365 
Q 1534 2075 1959 2075 
z
" transform="scale(0.015625)"/>
       </defs>
       <use xlink:href="#DejaVuSans-30"/>
       <use xlink:href="#DejaVuSans-2e" x="63.623047"/>
       <use xlink:href="#DejaVuSans-39" x="95.410156"/>
      </g>
     </g>
    </g>
    <g id="xtick_6">
     <g id="line2d_11">
      <path d="M 629.752414 384.48 
L 629.752414 51.84 
" clip-path="url(#p1bd5b6dadc)" style="fill: none; stroke: #b0b0b0; stroke-width: 0.8; stroke-linecap: square"/>
     </g>
     <g id="line2d_12">
      <g>
       <use xlink:href="#m04e74efcc5" x="629.752414" y="384.48" style="stroke: #000000; stroke-width: 0.8"/>
      </g>
     </g>
     <g id="text_6">
      <!-- 1.0 -->
      <g transform="translate(621.800851 399.078438) scale(0.1 -0.1)">
       <defs>
        <path id="DejaVuSans-31" d="M 794 531 
L 1825 531 
L 1825 4091 
L 703 3866 
L 703 4441 
L 1819 4666 
L 2450 4666 
L 2450 531 
L 3481 531 
L 3481 0 
L 794 0 
L 794 531 
z
" transform="scale(0.015625)"/>
       </defs>
       <use xlink:href="#DejaVuSans-31"/>
       <use xlink:href="#DejaVuSans-2e" x="63.623047"/>
       <use xlink:href="#DejaVuSans-30" x="95.410156"/>
      </g>
     </g>
    </g>
    <g id="text_7">
     <!-- Time (seconds) -->
     <g transform="translate(330.838281 412.756563) scale(0.1 -0.1)">
      <defs>
       <path id="DejaVuSans-54" d="M -19 4666 
L 3928 4666 
L 3928 4134 
L 2272 4134 
L 2272 0 
L 1638 0 
L 1638 4134 
L -19 4134 
L -19 4666 
z
" transform="scale(0.015625)"/>
       <path id="DejaVuSans-69" d="M 603 3500 
L 1178 3500 
L 1178 0 
L 603 0 
L 603 3500 
z
M 603 4863 
L 1178 4863 
L 1178 4134 
L 603 4134 
L 603 4863 
z
" transform="scale(0.015625)"/>
       <path id="DejaVuSans-6d" d="M 3328 2828 
Q 3544 3216 3844 3400 
Q 4144 3584 4550 3584 
Q 5097 3584 5394 3201 
Q 5691 2819 5691 2113 
L 5691 0 
L 5113 0 
L 5113 2094 
Q 5113 2597 4934 2840 
Q 4756 3084 4391 3084 
Q 3944 3084 3684 2787 
Q 3425 2491 3425 1978 
L 3425 0 
L 2847 0 
L 2847 2094 
Q 2847 2600 2669 2842 
Q 2491 3084 2119 3084 
Q 1678 3084 1418 2786 
Q 1159 2488 1159 1978 
L 1159 0 
L 581 0 
L 581 3500 
L 1159 3500 
L 1159 2956 
Q 1356 3278 1631 3431 
Q 1906 3584 2284 3584 
Q 2666 3584 2933 3390 
Q 3200 3197 3328 2828 
z
" transform="scale(0.015625)"/>
       <path id="DejaVuSans-65" d="M 3597 1894 
L 3597 1613 
L 953 1613 
Q 991 1019 1311 708 
Q 1631 397 2203 397 
Q 2534 397 2845 478 
Q 3156 559 3463 722 
L 3463 178 
Q 3153 47 2828 -22 
Q 2503 -91 2169 -91 
Q 1331 -91 842 396 
Q 353 884 353 1716 
Q 353 2575 817 3079 
Q 1281 3584 2069 3584 
Q 2775 3584 3186 3129 
Q 3597 2675 3597 1894 
z
M 3022 2063 
Q 3016 2534 2758 2815 
Q 2500 3097 2075 3097 
Q 1594 3097 1305 2825 
Q 1016 2553 972 2059 
L 3022 2063 
z
" transform="scale(0.015625)"/>
       <path id="DejaVuSans-20" transform="scale(0.015625)"/>
       <path id="DejaVuSans-28" d="M 1984 4856 
Q 1566 4138 1362 3434 
Q 1159 2731 1159 2009 
Q 1159 1288 1364 580 
Q 1569 -128 1984 -844 
L 1484 -844 
Q 1016 -109 783 600 
Q 550 1309 550 2009 
Q 550 2706 781 3412 
Q 1013 4119 1484 4856 
L 1984 4856 
z
" transform="scale(0.015625)"/>
       <path id="DejaVuSans-73" d="M 2834 3397 
L 2834 2853 
Q 2591 2978 2328 3040 
Q 2066 3103 1784 3103 
Q 1356 3103 1142 2972 
Q 928 2841 928 2578 
Q 928 2378 1081 2264 
Q 1234 2150 1697 2047 
L 1894 2003 
Q 2506 1872 2764 1633 
Q 3022 1394 3022 966 
Q 3022 478 2636 193 
Q 2250 -91 1575 -91 
Q 1294 -91 989 -36 
Q 684 19 347 128 
L 347 722 
Q 666 556 975 473 
Q 1284 391 1588 391 
Q 1994 391 2212 530 
Q 2431 669 2431 922 
Q 2431 1156 2273 1281 
Q 2116 1406 1581 1522 
L 1381 1569 
Q 847 1681 609 1914 
Q 372 2147 372 2553 
Q 372 3047 722 3315 
Q 1072 3584 1716 3584 
Q 2034 3584 2315 3537 
Q 2597 3491 2834 3397 
z
" transform="scale(0.015625)"/>
       <path id="DejaVuSans-63" d="M 3122 3366 
L 3122 2828 
Q 2878 2963 2633 3030 
Q 2388 3097 2138 3097 
Q 1578 3097 1268 2742 
Q 959 2388 959 1747 
Q 959 1106 1268 751 
Q 1578 397 2138 397 
Q 2388 397 2633 464 
Q 2878 531 3122 666 
L 3122 134 
Q 2881 22 2623 -34 
Q 2366 -91 2075 -91 
Q 1284 -91 818 406 
Q 353 903 353 1747 
Q 353 2603 823 3093 
Q 1294 3584 2113 3584 
Q 2378 3584 2631 3529 
Q 2884 3475 3122 3366 
z
" transform="scale(0.015625)"/>
       <path id="DejaVuSans-6f" d="M 1959 3097 
Q 1497 3097 1228 2736 
Q 959 2375 959 1747 
Q 959 1119 1226 758 
Q 1494 397 1959 397 
Q 2419 397 2687 759 
Q 2956 1122 2956 1747 
Q 2956 2369 2687 2733 
Q 2419 3097 1959 3097 
z
M 1959 3584 
Q 2709 3584 3137 3096 
Q 3566 2609 3566 1747 
Q 3566 888 3137 398 
Q 2709 -91 1959 -91 
Q 1206 -91 779 398 
Q 353 888 353 1747 
Q 353 2609 779 3096 
Q 1206 3584 1959 3584 
z
" transform="scale(0.015625)"/>
       <path id="DejaVuSans-6e" d="M 3513 2113 
L 3513 0 
L 2938 0 
L 2938 2094 
Q 2938 2591 2744 2837 
Q 2550 3084 2163 3084 
Q 1697 3084 1428 2787 
Q 1159 2491 1159 1978 
L 1159 0 
L 581 0 
L 581 3500 
L 1159 3500 
L 1159 2956 
Q 1366 3272 1645 3428 
Q 1925 3584 2291 3584 
Q 2894 3584 3203 3211 
Q 3513 2838 3513 2113 
z
" transform="scale(0.015625)"/>
       <path id="DejaVuSans-64" d="M 2906 2969 
L 2906 4863 
L 3481 4863 
L 3481 0 
L 2906 0 
L 2906 525 
Q 2725 213 2448 61 
Q 2172 -91 1784 -91 
Q 1150 -91 751 415 
Q 353 922 353 1747 
Q 353 2572 751 3078 
Q 1150 3584 1784 3584 
Q 2172 3584 2448 3432 
Q 2725 3281 2906 2969 
z
M 947 1747 
Q 947 1113 1208 752 
Q 1469 391 1925 391 
Q 2381 391 2643 752 
Q 2906 1113 2906 1747 
Q 2906 2381 2643 2742 
Q 2381 3103 1925 3103 
Q 1469 3103 1208 2742 
Q 947 2381 947 1747 
z
" transform="scale(0.015625)"/>
       <path id="DejaVuSans-29" d="M 513 4856 
L 1013 4856 
Q 1481 4119 1714 3412 
Q 1947 2706 1947 2009 
Q 1947 1309 1714 600 
Q 1481 -109 1013 -844 
L 513 -844 
Q 928 -128 1133 580 
Q 1338 1288 1338 2009 
Q 1338 2731 1133 3434 
Q 928 4138 513 4856 
z
" transform="scale(0.015625)"/>
      </defs>
      <use xlink:href="#DejaVuSans-54"/>
      <use xlink:href="#DejaVuSans-69" x="57.958984"/>
      <use xlink:href="#DejaVuSans-6d" x="85.742188"/>
      <use xlink:href="#DejaVuSans-65" x="183.154297"/>
      <use xlink:href="#DejaVuSans-20" x="244.677734"/>
      <use xlink:href="#DejaVuSans-28" x="276.464844"/>
      <use xlink:href="#DejaVuSans-73" x="315.478516"/>
      <use xlink:href="#DejaVuSans-65" x="367.578125"/>
      <use xlink:href="#DejaVuSans-63" x="429.101562"/>
      <use xlink:href="#DejaVuSans-6f" x="484.082031"/>
      <use xlink:href="#DejaVuSans-6e" x="545.263672"/>
      <use xlink:href="#DejaVuSans-64" x="608.642578"/>
      <use xlink:href="#DejaVuSans-73" x="672.119141"/>
      <use xlink:href="#DejaVuSans-29" x="724.21875"/>
     </g>
    </g>
   </g>
   <g id="matplotlib.axis_2">
    <g id="ytick_1">
     <g id="line2d_13">
      <path d="M 90 364.573573 
L 648 364.573573 
" clip-path="url(#p1bd5b6dadc)" style="fill: none; stroke: #b0b0b0; stroke-width: 0.8; stroke-linecap: square"/>
     </g>
     <g id="line2d_14">
      <defs>
       <path id="m6f4791c0a0" d="M 0 0 
L -3.5 0 
" style="stroke: #000000; stroke-width: 0.8"/>
      </defs>
      <g>
       <use xlink:href="#m6f4791c0a0" x="90" y="364.573573" style="stroke: #000000; stroke-width: 0.8"/>
      </g>
     </g>
     <g id="text_8">
      <!-- −0.5 -->
      <g transform="translate(58.717187 368.372791) scale(0.1 -0.1)">
       <defs>
        <path id="DejaVuSans-2212" d="M 678 2272 
L 4684 2272 
L 4684 1741 
L 678 1741 
L 678 2272 
z
" transform="scale(0.015625)"/>
       </defs>
       <use xlink:href="#DejaVuSans-2212"/>
       <use xlink:href="#DejaVuSans-30" x="83.789062"/>
       <use xlink:href="#DejaVuSans-2e" x="147.412109"/>
       <use xlink:href="#DejaVuSans-35" x="179.199219"/>
      </g>
     </g>
    </g>
    <g id="ytick_2">
     <g id="line2d_15">
      <path d="M 90 314.811555 
L 648 314.811555 
" clip-path="url(#p1bd5b6dadc)" style="fill: none; stroke: #b0b0b0; stroke-width: 0.8; stroke-linecap: square"/>
     </g>
     <g id="line2d_16">
      <g>
       <use xlink:href="#m6f4791c0a0" x="90" y="314.811555" style="stroke: #000000; stroke-width: 0.8"/>
      </g>
     </g>
     <g id="text_9">
      <!-- 0.0 -->
      <g transform="translate(67.096875 318.610773) scale(0.1 -0.1)">
       <use xlink:href="#DejaVuSans-30"/>
       <use xlink:href="#DejaVuSans-2e" x="63.623047"/>
       <use xlink:href="#DejaVuSans-30" x="95.410156"/>
      </g>
     </g>
    </g>
    <g id="ytick_3">
     <g id="line2d_17">
      <path d="M 90 265.049537 
L 648 265.049537 
" clip-path="url(#p1bd5b6dadc)" style="fill: none; stroke: #b0b0b0; stroke-width: 0.8; stroke-linecap: square"/>
     </g>
     <g id="line2d_18">
      <g>
       <use xlink:href="#m6f4791c0a0" x="90" y="265.049537" style="stroke: #000000; stroke-width: 0.8"/>
      </g>
     </g>
     <g id="text_10">
      <!-- 0.5 -->
      <g transform="translate(67.096875 268.848756) scale(0.1 -0.1)">
       <use xlink:href="#DejaVuSans-30"/>
       <use xlink:href="#DejaVuSans-2e" x="63.623047"/>
       <use xlink:href="#DejaVuSans-35" x="95.410156"/>
      </g>
     </g>
    </g>
    <g id="ytick_4">
     <g id="line2d_19">
      <path d="M 90 215.287519 
L 648 215.287519 
" clip-path="url(#p1bd5b6dadc)" style="fill: none; stroke: #b0b0b0; stroke-width: 0.8; stroke-linecap: square"/>
     </g>
     <g id="line2d_20">
      <g>
       <use xlink:href="#m6f4791c0a0" x="90" y="215.287519" style="stroke: #000000; stroke-width: 0.8"/>
      </g>
     </g>
     <g id="text_11">
      <!-- 1.0 -->
      <g transform="translate(67.096875 219.086738) scale(0.1 -0.1)">
       <use xlink:href="#DejaVuSans-31"/>
       <use xlink:href="#DejaVuSans-2e" x="63.623047"/>
       <use xlink:href="#DejaVuSans-30" x="95.410156"/>
      </g>
     </g>
    </g>
    <g id="ytick_5">
     <g id="line2d_21">
      <path d="M 90 165.525501 
L 648 165.525501 
" clip-path="url(#p1bd5b6dadc)" style="fill: none; stroke: #b0b0b0; stroke-width: 0.8; stroke-linecap: square"/>
     </g>
     <g id="line2d_22">
      <g>
       <use xlink:href="#m6f4791c0a0" x="90" y="165.525501" style="stroke: #000000; stroke-width: 0.8"/>
      </g>
     </g>
     <g id="text_12">
      <!-- 1.5 -->
      <g transform="translate(67.096875 169.32472) scale(0.1 -0.1)">
       <use xlink:href="#DejaVuSans-31"/>
       <use xlink:href="#DejaVuSans-2e" x="63.623047"/>
       <use xlink:href="#DejaVuSans-35" x="95.410156"/>
      </g>
     </g>
    </g>
    <g id="ytick_6">
     <g id="line2d_23">
      <path d="M 90 115.763483 
L 648 115.763483 
" clip-path="url(#p1bd5b6dadc)" style="fill: none; stroke: #b0b0b0; stroke-width: 0.8; stroke-linecap: square"/>
     </g>
     <g id="line2d_24">
      <g>
       <use xlink:href="#m6f4791c0a0" x="90" y="115.763483" style="stroke: #000000; stroke-width: 0.8"/>
      </g>
     </g>
     <g id="text_13">
      <!-- 2.0 -->
      <g transform="translate(67.096875 119.562702) scale(0.1 -0.1)">
       <defs>
        <path id="DejaVuSans-32" d="M 1228 531 
L 3431 531 
L 3431 0 
L 469 0 
L 469 531 
Q 828 903 1448 1529 
Q 2069 2156 2228 2338 
Q 2531 2678 2651 2914 
Q 2772 3150 2772 3378 
Q 2772 3750 2511 3984 
Q 2250 4219 1831 4219 
Q 1534 4219 1204 4116 
Q 875 4013 500 3803 
L 500 4441 
Q 881 4594 1212 4672 
Q 1544 4750 1819 4750 
Q 2544 4750 2975 4387 
Q 3406 4025 3406 3419 
Q 3406 3131 3298 2873 
Q 3191 2616 2906 2266 
Q 2828 2175 2409 1742 
Q 1991 1309 1228 531 
z
" transform="scale(0.015625)"/>
       </defs>
       <use xlink:href="#DejaVuSans-32"/>
       <use xlink:href="#DejaVuSans-2e" x="63.623047"/>
       <use xlink:href="#DejaVuSans-30" x="95.410156"/>
      </g>
     </g>
    </g>
    <g id="ytick_7">
     <g id="line2d_25">
      <path d="M 90 66.001466 
L 648 66.001466 
" clip-path="url(#p1bd5b6dadc)" style="fill: none; stroke: #b0b0b0; stroke-width: 0.8; stroke-linecap: square"/>
     </g>
     <g id="line2d_26">
      <g>
       <use xlink:href="#m6f4791c0a0" x="90" y="66.001466" style="stroke: #000000; stroke-width: 0.8"/>
      </g>
     </g>
     <g id="text_14">
      <!-- 2.5 -->
      <g transform="translate(67.096875 69.800684) scale(0.1 -0.1)">
       <use xlink:href="#DejaVuSans-32"/>
       <use xlink:href="#DejaVuSans-2e" x="63.623047"/>
       <use xlink:href="#DejaVuSans-35" x="95.410156"/>
      </g>
     </g>
    </g>
    <g id="text_15">
     <!-- Amplitude -->
     <g transform="translate(52.6375 243.782656) rotate(-90) scale(0.1 -0.1)">
      <defs>
       <path id="DejaVuSans-41" d="M 2188 4044 
L 1331 1722 
L 3047 1722 
L 2188 4044 
z
M 1831 4666 
L 2547 4666 
L 4325 0 
L 3669 0 
L 3244 1197 
L 1141 1197 
L 716 0 
L 50 0 
L 1831 4666 
z
" transform="scale(0.015625)"/>
       <path id="DejaVuSans-70" d="M 1159 525 
L 1159 -1331 
L 581 -1331 
L 581 3500 
L 1159 3500 
L 1159 2969 
Q 1341 3281 1617 3432 
Q 1894 3584 2278 3584 
Q 2916 3584 3314 3078 
Q 3713 2572 3713 1747 
Q 3713 922 3314 415 
Q 2916 -91 2278 -91 
Q 1894 -91 1617 61 
Q 1341 213 1159 525 
z
M 3116 1747 
Q 3116 2381 2855 2742 
Q 2594 3103 2138 3103 
Q 1681 3103 1420 2742 
Q 1159 2381 1159 1747 
Q 1159 1113 1420 752 
Q 1681 391 2138 391 
Q 2594 391 2855 752 
Q 3116 1113 3116 1747 
z
" transform="scale(0.015625)"/>
       <path id="DejaVuSans-6c" d="M 603 4863 
L 1178 4863 
L 1178 0 
L 603 0 
L 603 4863 
z
" transform="scale(0.015625)"/>
       <path id="DejaVuSans-74" d="M 1172 4494 
L 1172 3500 
L 2356 3500 
L 2356 3053 
L 1172 3053 
L 1172 1153 
Q 1172 725 1289 603 
Q 1406 481 1766 481 
L 2356 481 
L 2356 0 
L 1766 0 
Q 1100 0 847 248 
Q 594 497 594 1153 
L 594 3053 
L 172 3053 
L 172 3500 
L 594 3500 
L 594 4494 
L 1172 4494 
z
" transform="scale(0.015625)"/>
       <path id="DejaVuSans-75" d="M 544 1381 
L 544 3500 
L 1119 3500 
L 1119 1403 
Q 1119 906 1312 657 
Q 1506 409 1894 409 
Q 2359 409 2629 706 
Q 2900 1003 2900 1516 
L 2900 3500 
L 3475 3500 
L 3475 0 
L 2900 0 
L 2900 538 
Q 2691 219 2414 64 
Q 2138 -91 1772 -91 
Q 1169 -91 856 284 
Q 544 659 544 1381 
z
M 1991 3584 
L 1991 3584 
z
" transform="scale(0.015625)"/>
      </defs>
      <use xlink:href="#DejaVuSans-41"/>
      <use xlink:href="#DejaVuSans-6d" x="68.408203"/>
      <use xlink:href="#DejaVuSans-70" x="165.820312"/>
      <use xlink:href="#DejaVuSans-6c" x="229.296875"/>
      <use xlink:href="#DejaVuSans-69" x="257.080078"/>
      <use xlink:href="#DejaVuSans-74" x="284.863281"/>
      <use xlink:href="#DejaVuSans-75" x="324.072266"/>
      <use xlink:href="#DejaVuSans-64" x="387.451172"/>
      <use xlink:href="#DejaVuSans-65" x="450.927734"/>
     </g>
    </g>
   </g>
   <g id="line2d_27">
    <path d="M 115.363636 298.259461 
L 116.380215 293.970118 
L 117.396794 291.09824 
L 118.413372 290.010401 
L 119.429951 290.908306 
L 120.446529 293.799641 
L 121.463108 298.487827 
L 122.479687 304.582607 
L 123.496265 333.326862 
L 124.512844 318.55502 
L 125.529422 313.91606 
L 127.56258 324.036859 
L 129.595737 315.726451 
L 130.612316 322.291864 
L 131.628894 324.27255 
L 132.645473 331.932815 
L 133.662051 346.953155 
L 134.67863 345.339384 
L 135.695209 342.310631 
L 136.711787 352.113477 
L 137.728366 355.393198 
L 138.744944 352.605509 
L 139.761523 357.306533 
L 140.778102 353.497205 
L 141.79468 347.86736 
L 142.811259 347.626324 
L 143.827837 346.63322 
L 145.860995 327.952058 
L 146.877573 320.786308 
L 147.894152 315.965931 
L 148.910731 323.724121 
L 149.927309 334.144928 
L 150.943888 327.614775 
L 151.960466 323.681698 
L 152.977045 331.29909 
L 153.993624 330.590259 
L 155.010202 337.693479 
L 156.026781 358.929914 
L 157.043359 354.968178 
L 158.059938 345.555399 
L 159.076517 351.945486 
L 161.109674 343.000278 
L 162.126253 341.129731 
L 163.142831 338.522214 
L 164.15941 335.298261 
L 165.175988 322.915984 
L 166.192567 326.950943 
L 167.209146 338.493016 
L 168.225724 339.358646 
L 169.242303 325.825522 
L 170.258881 321.569419 
L 171.27546 328.867915 
L 172.292039 324.782244 
L 173.308617 311.733162 
L 174.325196 320.924305 
L 175.341774 340.056072 
L 176.358353 349.945891 
L 177.374932 340.561272 
L 178.39151 337.908194 
L 180.424668 326.245661 
L 182.457825 339.257801 
L 183.474403 336.759925 
L 184.490982 333.22363 
L 185.507561 320.931554 
L 186.524139 311.64647 
L 187.540718 319.317819 
L 188.557296 330.934683 
L 189.573875 328.576001 
L 190.590454 325.745334 
L 191.607032 324.943195 
L 192.623611 323.522046 
L 193.640189 327.240454 
L 194.656768 330.318633 
L 195.673347 331.039652 
L 196.689925 323.254237 
L 197.706504 326.017878 
L 198.723083 314.658504 
L 199.739661 320.831002 
L 200.75624 327.809456 
L 201.772818 321.592077 
L 202.789397 321.70269 
L 203.805976 324.628729 
L 204.822554 322.894702 
L 205.839133 328.812783 
L 206.855711 322.332067 
L 207.87229 319.156847 
L 208.888869 323.880462 
L 209.905447 332.825454 
L 210.922026 330.071164 
L 211.938604 321.564671 
L 212.955183 314.766133 
L 213.971762 314.935313 
L 216.004919 319.240368 
L 217.021498 320.792106 
L 218.038076 311.461641 
L 219.054655 321.721629 
L 220.071233 337.405581 
L 221.087812 314.203116 
L 222.104391 325.70194 
L 223.120969 335.643717 
L 224.137548 326.38479 
L 225.154126 309.019939 
L 226.170705 319.3201 
L 227.187284 332.982179 
L 229.220441 316.898699 
L 230.237019 314.801763 
L 231.253598 321.364175 
L 232.270177 326.370625 
L 233.286755 329.323994 
L 234.303334 336.38799 
L 235.319913 337.31191 
L 236.336491 332.61665 
L 237.35307 331.086842 
L 238.369648 330.650601 
L 239.386227 333.639222 
L 240.402806 335.146501 
L 241.419384 333.93431 
L 242.435963 336.24687 
L 243.452541 340.801024 
L 244.46912 340.786071 
L 245.485699 346.241213 
L 246.502277 344.255203 
L 247.518856 341.757111 
L 248.535435 338.829883 
L 249.552013 339.99679 
L 250.568592 334.424261 
L 251.58517 339.461428 
L 252.601749 343.919988 
L 253.618328 345.883871 
L 254.634906 350.918094 
L 255.651485 338.297905 
L 256.668063 339.561464 
L 257.684642 342.147046 
L 258.701221 345.886211 
L 259.717799 347.689641 
L 260.734378 347.930744 
L 261.750956 335.752013 
L 262.767535 340.177735 
L 263.784114 347.042983 
L 264.800692 345.574667 
L 265.817271 343.16787 
L 266.83385 346.558748 
L 267.850428 347.248933 
L 268.867007 352.636868 
L 269.883585 351.751526 
L 270.900164 356.709619 
L 271.916743 350.779668 
L 272.933321 348.565957 
L 273.9499 350.620244 
L 274.966478 354.905491 
L 275.983057 354.507697 
L 276.999636 354.928949 
L 278.016214 353.795159 
L 279.032793 353.703399 
L 280.049371 360.460218 
L 281.06595 337.165029 
L 282.082529 339.040096 
L 283.099107 351.006012 
L 284.115686 346.00028 
L 285.132265 344.719173 
L 286.148843 345.564012 
L 287.165422 349.345412 
L 288.182 355.145638 
L 290.215158 337.820231 
L 291.231736 339.137302 
L 292.248315 342.417275 
L 293.264893 344.319286 
L 294.281472 347.732053 
L 295.298051 347.747321 
L 296.314629 353.18948 
L 297.331208 362.331764 
L 298.347786 358.713651 
L 299.364365 353.577262 
L 300.380944 353.250949 
L 301.397522 353.68301 
L 302.414101 341.604879 
L 303.43068 354.474972 
L 304.447258 355.65451 
L 305.463837 344.361822 
L 306.480415 347.357976 
L 307.496994 358.644562 
L 308.513573 362.819619 
L 309.530151 354.834013 
L 310.54673 349.456151 
L 311.563308 355.521694 
L 312.579887 355.860455 
L 313.596466 341.36604 
L 314.613044 341.545151 
L 315.629623 349.23493 
L 316.646201 348.093077 
L 317.66278 341.992518 
L 318.679359 342.614738 
L 319.695937 351.482701 
L 320.712516 355.837851 
L 321.729095 357.948091 
L 322.745673 354.874686 
L 323.762252 359.650043 
L 324.77883 361.075468 
L 325.795409 366.989041 
L 326.811988 369.36 
L 327.828566 362.526734 
L 328.845145 343.746105 
L 329.861723 337.712591 
L 330.878302 344.10658 
L 331.894881 354.301855 
L 332.911459 357.485819 
L 333.928038 357.776175 
L 334.944617 350.817273 
L 336.977774 330.715014 
L 337.994352 325.272318 
L 339.010931 321.823438 
L 340.02751 322.294822 
L 341.044088 323.981409 
L 342.060667 326.578119 
L 343.077245 306.481545 
L 344.093824 303.63816 
L 345.110403 303.638275 
L 346.126981 294.166768 
L 347.14356 275.989062 
L 348.160138 271.761453 
L 349.176717 268.701223 
L 350.193296 259.765567 
L 351.209874 241.841079 
L 352.226453 231.480353 
L 353.243032 200.917612 
L 354.25961 191.047658 
L 356.292767 185.705133 
L 359.342503 147.659066 
L 361.37566 116.346538 
L 362.392239 104.755138 
L 363.408818 103.935662 
L 365.441975 72.587642 
L 366.458553 68.633259 
L 367.475132 69.757962 
L 368.491711 74.188407 
L 369.508289 66.96 
L 370.524868 74.083875 
L 371.541447 92.919574 
L 372.558025 98.687123 
L 373.574604 101.65687 
L 374.591182 108.477505 
L 375.607761 125.207599 
L 376.62434 154.353955 
L 377.640918 178.909146 
L 378.657497 195.944542 
L 380.690654 224.898065 
L 381.707233 247.173843 
L 382.723811 254.500728 
L 383.74039 269.433205 
L 384.756968 274.856953 
L 385.773547 286.471745 
L 386.790126 289.151607 
L 387.806704 297.123763 
L 388.823283 298.353407 
L 389.839862 310.078143 
L 390.85644 311.998645 
L 391.873019 309.812249 
L 392.889597 315.603734 
L 393.906176 313.361802 
L 394.922755 320.114717 
L 396.955912 326.533508 
L 397.97249 322.52678 
L 400.005648 316.228978 
L 401.022226 320.206586 
L 402.038805 323.132646 
L 403.055383 323.449493 
L 404.071962 318.338469 
L 405.088541 311.880592 
L 406.105119 319.404224 
L 407.121698 332.569508 
L 408.138277 338.179555 
L 409.154855 330.31865 
L 410.171434 335.984107 
L 411.188012 340.793122 
L 412.204591 338.394311 
L 413.22117 342.947324 
L 414.237748 341.637299 
L 415.254327 335.679317 
L 416.270905 319.126018 
L 418.304063 333.519852 
L 419.320641 338.18808 
L 420.33722 335.301887 
L 423.386956 355.665332 
L 424.403534 342.267167 
L 425.420113 338.325629 
L 426.436692 336.712281 
L 427.45327 338.448714 
L 428.469849 334.742528 
L 429.486427 334.685145 
L 430.503006 342.158963 
L 431.519585 341.954671 
L 432.536163 341.94013 
L 433.552742 338.666881 
L 434.56932 338.489969 
L 435.585899 342.250844 
L 436.602478 344.408334 
L 437.619056 342.333226 
L 438.635635 342.06737 
L 439.652214 348.33665 
L 440.668792 349.145497 
L 441.685371 342.486681 
L 442.701949 331.25046 
L 443.718528 327.250436 
L 444.735107 338.733519 
L 445.751685 352.558567 
L 446.768264 336.081569 
L 447.784842 332.504808 
L 448.801421 338.968331 
L 449.818 342.657167 
L 450.834578 339.787346 
L 451.851157 342.156361 
L 452.867735 341.188098 
L 453.884314 338.292747 
L 454.900893 336.105537 
L 455.917471 330.412255 
L 456.93405 332.10348 
L 457.950629 334.539461 
L 458.967207 325.700466 
L 459.983786 333.562486 
L 461.000364 340.185615 
L 462.016943 338.332151 
L 463.033522 331.873076 
L 464.0501 337.621703 
L 465.066679 339.342094 
L 466.083257 331.44455 
L 467.099836 326.52966 
L 468.116415 332.444207 
L 469.132993 325.278044 
L 470.149572 327.534867 
L 471.16615 326.871028 
L 472.182729 330.707948 
L 473.199308 332.59595 
L 474.215886 333.719717 
L 475.232465 333.588426 
L 476.249044 328.841463 
L 477.265622 328.474894 
L 478.282201 325.853731 
L 479.298779 324.020512 
L 480.315358 327.26174 
L 481.331937 329.468575 
L 482.348515 329.946906 
L 483.365094 332.741462 
L 484.381672 332.360674 
L 485.398251 328.839291 
L 487.431408 317.30233 
L 488.447987 315.009825 
L 489.464565 317.426779 
L 490.481144 325.469939 
L 491.497723 323.388268 
L 492.514301 314.56487 
L 494.547459 309.142493 
L 495.564037 313.074281 
L 496.580616 314.456236 
L 497.597194 316.836655 
L 498.613773 306.603718 
L 499.630352 302.948704 
L 500.64693 310.830481 
L 501.663509 319.613297 
L 502.680087 321.246811 
L 503.696666 324.179347 
L 504.713245 320.851081 
L 505.729823 320.901345 
L 506.746402 310.397955 
L 507.762981 307.399113 
L 508.779559 312.982108 
L 509.796138 311.552646 
L 510.812716 316.150087 
L 511.829295 306.495924 
L 512.845874 311.852553 
L 513.862452 298.051839 
L 514.879031 294.021464 
L 515.895609 295.889349 
L 516.912188 295.875316 
L 517.928767 294.224058 
L 519.961924 306.526214 
L 520.978502 308.45207 
L 523.01166 293.460325 
L 524.028238 296.531171 
L 525.044817 294.811578 
L 526.061396 287.120918 
L 527.077974 289.754117 
L 528.094553 295.626096 
L 529.111131 295.47912 
L 530.12771 293.794835 
L 531.144289 294.471667 
L 532.160867 293.456526 
L 534.194024 290.92589 
L 535.210603 294.43338 
L 536.227182 295.695187 
L 537.24376 292.187756 
L 538.260339 288.250502 
L 539.276917 286.918155 
L 540.293496 285.999665 
L 541.310075 290.731544 
L 542.326653 288.696204 
L 543.343232 294.381448 
L 544.359811 296.424491 
L 545.376389 293.771507 
L 546.392968 290.428084 
L 547.409546 285.560704 
L 548.426125 293.158491 
L 549.442704 295.993377 
L 550.459282 291.285744 
L 551.475861 291.774669 
L 552.492439 291.585014 
L 553.509018 293.995642 
L 554.525597 288.787005 
L 555.542175 288.293544 
L 556.558754 290.380749 
L 557.575332 289.677219 
L 558.591911 291.823923 
L 559.60849 297.379774 
L 560.625068 299.947839 
L 561.641647 299.502891 
L 562.658226 302.242095 
L 563.674804 298.420499 
L 564.691383 296.514141 
L 565.707961 290.470968 
L 566.72454 292.920598 
L 567.741119 300.52427 
L 568.757697 298.610666 
L 569.774276 288.602861 
L 570.790854 282.420138 
L 571.807433 289.132771 
L 572.824012 289.628851 
L 573.84059 290.814645 
L 574.857169 291.050259 
L 575.873747 305.940503 
L 576.890326 301.099344 
L 577.906905 299.720352 
L 578.923483 299.07696 
L 579.940062 303.396029 
L 580.956641 305.419321 
L 581.973219 295.944359 
L 582.989798 293.789402 
L 584.006376 295.272362 
L 585.022955 293.107737 
L 586.039534 298.173812 
L 587.056112 307.734824 
L 588.072691 309.25673 
L 589.089269 310.500462 
L 590.105848 314.842571 
L 591.122427 314.547992 
L 592.139005 311.322363 
L 593.155584 310.129502 
L 594.172163 310.726756 
L 595.188741 308.807687 
L 596.20532 302.318897 
L 597.221898 301.922818 
L 598.238477 309.501463 
L 599.255056 306.178161 
L 600.271634 308.210254 
L 601.288213 309.719017 
L 602.304791 314.30609 
L 603.32137 315.72338 
L 604.337949 321.200726 
L 605.354527 328.595392 
L 606.371106 323.710121 
L 607.387684 315.107979 
L 608.404263 311.274025 
L 609.420842 312.925348 
L 610.43742 315.488327 
L 611.453999 323.838113 
L 612.470578 325.061933 
L 613.487156 326.900717 
L 614.503735 323.357729 
L 615.520313 319.108119 
L 616.536892 323.77167 
L 617.553471 324.948806 
L 618.570049 321.622995 
L 619.586628 323.290367 
L 620.603206 325.429 
L 621.619785 328.827247 
L 622.636364 329.448229 
L 622.636364 329.448229 
" clip-path="url(#p1bd5b6dadc)" style="fill: none; stroke: #0000ff; stroke-width: 1.5; stroke-linecap: square"/>
   </g>
   <g id="line2d_28">
    <path d="M 369.508289 384.48 
L 369.508289 51.84 
" clip-path="url(#p1bd5b6dadc)" style="fill: none; stroke-dasharray: 5.55,2.4; stroke-dashoffset: 0; stroke: #ff0000; stroke-width: 1.5"/>
   </g>
   <g id="patch_3">
    <path d="M 90 384.48 
L 90 51.84 
" style="fill: none; stroke: #000000; stroke-width: 0.8; stroke-linejoin: miter; stroke-linecap: square"/>
   </g>
   <g id="patch_4">
    <path d="M 648 384.48 
L 648 51.84 
" style="fill: none; stroke: #000000; stroke-width: 0.8; stroke-linejoin: miter; stroke-linecap: square"/>
   </g>
   <g id="patch_5">
    <path d="M 90 384.48 
L 648 384.48 
" style="fill: none; stroke: #000000; stroke-width: 0.8; stroke-linejoin: miter; stroke-linecap: square"/>
   </g>
   <g id="patch_6">
    <path d="M 90 51.84 
L 648 51.84 
" style="fill: none; stroke: #000000; stroke-width: 0.8; stroke-linejoin: miter; stroke-linecap: square"/>
   </g>
   <g id="text_16">
    <!-- Zoomed-in ECG Traces of One Heartbeat (Noisy ECG) -->
    <g transform="translate(209.504063 45.84) scale(0.12 -0.12)">
     <defs>
      <path id="DejaVuSans-5a" d="M 359 4666 
L 4025 4666 
L 4025 4184 
L 1075 531 
L 4097 531 
L 4097 0 
L 288 0 
L 288 481 
L 3238 4134 
L 359 4134 
L 359 4666 
z
" transform="scale(0.015625)"/>
      <path id="DejaVuSans-2d" d="M 313 2009 
L 1997 2009 
L 1997 1497 
L 313 1497 
L 313 2009 
z
" transform="scale(0.015625)"/>
      <path id="DejaVuSans-45" d="M 628 4666 
L 3578 4666 
L 3578 4134 
L 1259 4134 
L 1259 2753 
L 3481 2753 
L 3481 2222 
L 1259 2222 
L 1259 531 
L 3634 531 
L 3634 0 
L 628 0 
L 628 4666 
z
" transform="scale(0.015625)"/>
      <path id="DejaVuSans-43" d="M 4122 4306 
L 4122 3641 
Q 3803 3938 3442 4084 
Q 3081 4231 2675 4231 
Q 1875 4231 1450 3742 
Q 1025 3253 1025 2328 
Q 1025 1406 1450 917 
Q 1875 428 2675 428 
Q 3081 428 3442 575 
Q 3803 722 4122 1019 
L 4122 359 
Q 3791 134 3420 21 
Q 3050 -91 2638 -91 
Q 1578 -91 968 557 
Q 359 1206 359 2328 
Q 359 3453 968 4101 
Q 1578 4750 2638 4750 
Q 3056 4750 3426 4639 
Q 3797 4528 4122 4306 
z
" transform="scale(0.015625)"/>
      <path id="DejaVuSans-47" d="M 3809 666 
L 3809 1919 
L 2778 1919 
L 2778 2438 
L 4434 2438 
L 4434 434 
Q 4069 175 3628 42 
Q 3188 -91 2688 -91 
Q 1594 -91 976 548 
Q 359 1188 359 2328 
Q 359 3472 976 4111 
Q 1594 4750 2688 4750 
Q 3144 4750 3555 4637 
Q 3966 4525 4313 4306 
L 4313 3634 
Q 3963 3931 3569 4081 
Q 3175 4231 2741 4231 
Q 1884 4231 1454 3753 
Q 1025 3275 1025 2328 
Q 1025 1384 1454 906 
Q 1884 428 2741 428 
Q 3075 428 3337 486 
Q 3600 544 3809 666 
z
" transform="scale(0.015625)"/>
      <path id="DejaVuSans-72" d="M 2631 2963 
Q 2534 3019 2420 3045 
Q 2306 3072 2169 3072 
Q 1681 3072 1420 2755 
Q 1159 2438 1159 1844 
L 1159 0 
L 581 0 
L 581 3500 
L 1159 3500 
L 1159 2956 
Q 1341 3275 1631 3429 
Q 1922 3584 2338 3584 
Q 2397 3584 2469 3576 
Q 2541 3569 2628 3553 
L 2631 2963 
z
" transform="scale(0.015625)"/>
      <path id="DejaVuSans-61" d="M 2194 1759 
Q 1497 1759 1228 1600 
Q 959 1441 959 1056 
Q 959 750 1161 570 
Q 1363 391 1709 391 
Q 2188 391 2477 730 
Q 2766 1069 2766 1631 
L 2766 1759 
L 2194 1759 
z
M 3341 1997 
L 3341 0 
L 2766 0 
L 2766 531 
Q 2569 213 2275 61 
Q 1981 -91 1556 -91 
Q 1019 -91 701 211 
Q 384 513 384 1019 
Q 384 1609 779 1909 
Q 1175 2209 1959 2209 
L 2766 2209 
L 2766 2266 
Q 2766 2663 2505 2880 
Q 2244 3097 1772 3097 
Q 1472 3097 1187 3025 
Q 903 2953 641 2809 
L 641 3341 
Q 956 3463 1253 3523 
Q 1550 3584 1831 3584 
Q 2591 3584 2966 3190 
Q 3341 2797 3341 1997 
z
" transform="scale(0.015625)"/>
      <path id="DejaVuSans-66" d="M 2375 4863 
L 2375 4384 
L 1825 4384 
Q 1516 4384 1395 4259 
Q 1275 4134 1275 3809 
L 1275 3500 
L 2222 3500 
L 2222 3053 
L 1275 3053 
L 1275 0 
L 697 0 
L 697 3053 
L 147 3053 
L 147 3500 
L 697 3500 
L 697 3744 
Q 697 4328 969 4595 
Q 1241 4863 1831 4863 
L 2375 4863 
z
" transform="scale(0.015625)"/>
      <path id="DejaVuSans-4f" d="M 2522 4238 
Q 1834 4238 1429 3725 
Q 1025 3213 1025 2328 
Q 1025 1447 1429 934 
Q 1834 422 2522 422 
Q 3209 422 3611 934 
Q 4013 1447 4013 2328 
Q 4013 3213 3611 3725 
Q 3209 4238 2522 4238 
z
M 2522 4750 
Q 3503 4750 4090 4092 
Q 4678 3434 4678 2328 
Q 4678 1225 4090 567 
Q 3503 -91 2522 -91 
Q 1538 -91 948 565 
Q 359 1222 359 2328 
Q 359 3434 948 4092 
Q 1538 4750 2522 4750 
z
" transform="scale(0.015625)"/>
      <path id="DejaVuSans-48" d="M 628 4666 
L 1259 4666 
L 1259 2753 
L 3553 2753 
L 3553 4666 
L 4184 4666 
L 4184 0 
L 3553 0 
L 3553 2222 
L 1259 2222 
L 1259 0 
L 628 0 
L 628 4666 
z
" transform="scale(0.015625)"/>
      <path id="DejaVuSans-62" d="M 3116 1747 
Q 3116 2381 2855 2742 
Q 2594 3103 2138 3103 
Q 1681 3103 1420 2742 
Q 1159 2381 1159 1747 
Q 1159 1113 1420 752 
Q 1681 391 2138 391 
Q 2594 391 2855 752 
Q 3116 1113 3116 1747 
z
M 1159 2969 
Q 1341 3281 1617 3432 
Q 1894 3584 2278 3584 
Q 2916 3584 3314 3078 
Q 3713 2572 3713 1747 
Q 3713 922 3314 415 
Q 2916 -91 2278 -91 
Q 1894 -91 1617 61 
Q 1341 213 1159 525 
L 1159 0 
L 581 0 
L 581 4863 
L 1159 4863 
L 1159 2969 
z
" transform="scale(0.015625)"/>
      <path id="DejaVuSans-4e" d="M 628 4666 
L 1478 4666 
L 3547 763 
L 3547 4666 
L 4159 4666 
L 4159 0 
L 3309 0 
L 1241 3903 
L 1241 0 
L 628 0 
L 628 4666 
z
" transform="scale(0.015625)"/>
      <path id="DejaVuSans-79" d="M 2059 -325 
Q 1816 -950 1584 -1140 
Q 1353 -1331 966 -1331 
L 506 -1331 
L 506 -850 
L 844 -850 
Q 1081 -850 1212 -737 
Q 1344 -625 1503 -206 
L 1606 56 
L 191 3500 
L 800 3500 
L 1894 763 
L 2988 3500 
L 3597 3500 
L 2059 -325 
z
" transform="scale(0.015625)"/>
     </defs>
     <use xlink:href="#DejaVuSans-5a"/>
     <use xlink:href="#DejaVuSans-6f" x="68.505859"/>
     <use xlink:href="#DejaVuSans-6f" x="129.6875"/>
     <use xlink:href="#DejaVuSans-6d" x="190.869141"/>
     <use xlink:href="#DejaVuSans-65" x="288.28125"/>
     <use xlink:href="#DejaVuSans-64" x="349.804688"/>
     <use xlink:href="#DejaVuSans-2d" x="413.28125"/>
     <use xlink:href="#DejaVuSans-69" x="449.365234"/>
     <use xlink:href="#DejaVuSans-6e" x="477.148438"/>
     <use xlink:href="#DejaVuSans-20" x="540.527344"/>
     <use xlink:href="#DejaVuSans-45" x="572.314453"/>
     <use xlink:href="#DejaVuSans-43" x="635.498047"/>
     <use xlink:href="#DejaVuSans-47" x="705.322266"/>
     <use xlink:href="#DejaVuSans-20" x="782.8125"/>
     <use xlink:href="#DejaVuSans-54" x="814.599609"/>
     <use xlink:href="#DejaVuSans-72" x="860.933594"/>
     <use xlink:href="#DejaVuSans-61" x="902.046875"/>
     <use xlink:href="#DejaVuSans-63" x="963.326172"/>
     <use xlink:href="#DejaVuSans-65" x="1018.306641"/>
     <use xlink:href="#DejaVuSans-73" x="1079.830078"/>
     <use xlink:href="#DejaVuSans-20" x="1131.929688"/>
     <use xlink:href="#DejaVuSans-6f" x="1163.716797"/>
     <use xlink:href="#DejaVuSans-66" x="1224.898438"/>
     <use xlink:href="#DejaVuSans-20" x="1260.103516"/>
     <use xlink:href="#DejaVuSans-4f" x="1291.890625"/>
     <use xlink:href="#DejaVuSans-6e" x="1370.601562"/>
     <use xlink:href="#DejaVuSans-65" x="1433.980469"/>
     <use xlink:href="#DejaVuSans-20" x="1495.503906"/>
     <use xlink:href="#DejaVuSans-48" x="1527.291016"/>
     <use xlink:href="#DejaVuSans-65" x="1602.486328"/>
     <use xlink:href="#DejaVuSans-61" x="1664.009766"/>
     <use xlink:href="#DejaVuSans-72" x="1725.289062"/>
     <use xlink:href="#DejaVuSans-74" x="1766.402344"/>
     <use xlink:href="#DejaVuSans-62" x="1805.611328"/>
     <use xlink:href="#DejaVuSans-65" x="1869.087891"/>
     <use xlink:href="#DejaVuSans-61" x="1930.611328"/>
     <use xlink:href="#DejaVuSans-74" x="1991.890625"/>
     <use xlink:href="#DejaVuSans-20" x="2031.099609"/>
     <use xlink:href="#DejaVuSans-28" x="2062.886719"/>
     <use xlink:href="#DejaVuSans-4e" x="2101.900391"/>
     <use xlink:href="#DejaVuSans-6f" x="2176.705078"/>
     <use xlink:href="#DejaVuSans-69" x="2237.886719"/>
     <use xlink:href="#DejaVuSans-73" x="2265.669922"/>
     <use xlink:href="#DejaVuSans-79" x="2317.769531"/>
     <use xlink:href="#DejaVuSans-20" x="2376.949219"/>
     <use xlink:href="#DejaVuSans-45" x="2408.736328"/>
     <use xlink:href="#DejaVuSans-43" x="2471.919922"/>
     <use xlink:href="#DejaVuSans-47" x="2541.744141"/>
     <use xlink:href="#DejaVuSans-29" x="2619.234375"/>
    </g>
   </g>
   <g id="legend_1">
    <g id="patch_7">
     <path d="M 514.109375 89.19625 
L 641 89.19625 
Q 643 89.19625 643 87.19625 
L 643 58.84 
Q 643 56.84 641 56.84 
L 514.109375 56.84 
Q 512.109375 56.84 512.109375 58.84 
L 512.109375 87.19625 
Q 512.109375 89.19625 514.109375 89.19625 
z
" style="fill: #ffffff; opacity: 0.8; stroke: #cccccc; stroke-linejoin: miter"/>
    </g>
    <g id="line2d_29">
     <path d="M 516.109375 64.938437 
L 526.109375 64.938437 
L 536.109375 64.938437 
" style="fill: none; stroke: #0000ff; stroke-width: 1.5; stroke-linecap: square"/>
    </g>
    <g id="text_17">
     <!-- Zoomed Heartbeat -->
     <g transform="translate(544.109375 68.438437) scale(0.1 -0.1)">
      <use xlink:href="#DejaVuSans-5a"/>
      <use xlink:href="#DejaVuSans-6f" x="68.505859"/>
      <use xlink:href="#DejaVuSans-6f" x="129.6875"/>
      <use xlink:href="#DejaVuSans-6d" x="190.869141"/>
      <use xlink:href="#DejaVuSans-65" x="288.28125"/>
      <use xlink:href="#DejaVuSans-64" x="349.804688"/>
      <use xlink:href="#DejaVuSans-20" x="413.28125"/>
      <use xlink:href="#DejaVuSans-48" x="445.068359"/>
      <use xlink:href="#DejaVuSans-65" x="520.263672"/>
      <use xlink:href="#DejaVuSans-61" x="581.787109"/>
      <use xlink:href="#DejaVuSans-72" x="643.066406"/>
      <use xlink:href="#DejaVuSans-74" x="684.179688"/>
      <use xlink:href="#DejaVuSans-62" x="723.388672"/>
      <use xlink:href="#DejaVuSans-65" x="786.865234"/>
      <use xlink:href="#DejaVuSans-61" x="848.388672"/>
      <use xlink:href="#DejaVuSans-74" x="909.667969"/>
     </g>
    </g>
    <g id="line2d_30">
     <path d="M 516.109375 79.616562 
L 526.109375 79.616562 
L 536.109375 79.616562 
" style="fill: none; stroke-dasharray: 5.55,2.4; stroke-dashoffset: 0; stroke: #ff0000; stroke-width: 1.5"/>
    </g>
    <g id="text_18">
     <!-- R-Peak -->
     <g transform="translate(544.109375 83.116562) scale(0.1 -0.1)">
      <defs>
       <path id="DejaVuSans-52" d="M 2841 2188 
Q 3044 2119 3236 1894 
Q 3428 1669 3622 1275 
L 4263 0 
L 3584 0 
L 2988 1197 
Q 2756 1666 2539 1819 
Q 2322 1972 1947 1972 
L 1259 1972 
L 1259 0 
L 628 0 
L 628 4666 
L 2053 4666 
Q 2853 4666 3247 4331 
Q 3641 3997 3641 3322 
Q 3641 2881 3436 2590 
Q 3231 2300 2841 2188 
z
M 1259 4147 
L 1259 2491 
L 2053 2491 
Q 2509 2491 2742 2702 
Q 2975 2913 2975 3322 
Q 2975 3731 2742 3939 
Q 2509 4147 2053 4147 
L 1259 4147 
z
" transform="scale(0.015625)"/>
       <path id="DejaVuSans-50" d="M 1259 4147 
L 1259 2394 
L 2053 2394 
Q 2494 2394 2734 2622 
Q 2975 2850 2975 3272 
Q 2975 3691 2734 3919 
Q 2494 4147 2053 4147 
L 1259 4147 
z
M 628 4666 
L 2053 4666 
Q 2838 4666 3239 4311 
Q 3641 3956 3641 3272 
Q 3641 2581 3239 2228 
Q 2838 1875 2053 1875 
L 1259 1875 
L 1259 0 
L 628 0 
L 628 4666 
z
" transform="scale(0.015625)"/>
       <path id="DejaVuSans-6b" d="M 581 4863 
L 1159 4863 
L 1159 1991 
L 2875 3500 
L 3609 3500 
L 1753 1863 
L 3688 0 
L 2938 0 
L 1159 1709 
L 1159 0 
L 581 0 
L 581 4863 
z
" transform="scale(0.015625)"/>
      </defs>
      <use xlink:href="#DejaVuSans-52"/>
      <use xlink:href="#DejaVuSans-2d" x="65.482422"/>
      <use xlink:href="#DejaVuSans-50" x="101.566406"/>
      <use xlink:href="#DejaVuSans-65" x="158.244141"/>
      <use xlink:href="#DejaVuSans-61" x="219.767578"/>
      <use xlink:href="#DejaVuSans-6b" x="281.046875"/>
     </g>
    </g>
   </g>
  </g>
 </g>
 <defs>
  <clipPath id="p1bd5b6dadc">
   <rect x="90" y="51.84" width="558" height="332.64"/>
  </clipPath>
 </defs>
</svg>
