<?xml version="1.0" encoding="utf-8" standalone="no"?>
<!DOCTYPE svg PUBLIC "-//W3C//DTD SVG 1.1//EN"
  "http://www.w3.org/Graphics/SVG/1.1/DTD/svg11.dtd">
<svg xmlns:xlink="http://www.w3.org/1999/xlink" width="720pt" height="432pt" viewBox="0 0 720 432" xmlns="http://www.w3.org/2000/svg" version="1.1">
 <metadata>
  <rdf:RDF xmlns:dc="http://purl.org/dc/elements/1.1/" xmlns:cc="http://creativecommons.org/ns#" xmlns:rdf="http://www.w3.org/1999/02/22-rdf-syntax-ns#">
   <cc:Work>
    <dc:type rdf:resource="http://purl.org/dc/dcmitype/StillImage"/>
    <dc:date>2024-11-17T22:19:50.856660</dc:date>
    <dc:format>image/svg+xml</dc:format>
    <dc:creator>
     <cc:Agent>
      <dc:title>Matplotlib v3.9.2, https://matplotlib.org/</dc:title>
     </cc:Agent>
    </dc:creator>
   </cc:Work>
  </rdf:RDF>
 </metadata>
 <defs>
  <style type="text/css">*{stroke-linejoin: round; stroke-linecap: butt}</style>
 </defs>
 <g id="figure_1">
  <g id="patch_1">
   <path d="M 0 432 
L 720 432 
L 720 0 
L 0 0 
z
" style="fill: #ffffff"/>
  </g>
  <g id="axes_1">
   <g id="patch_2">
    <path d="M 90 384.48 
L 648 384.48 
L 648 51.84 
L 90 51.84 
z
" style="fill: #ffffff"/>
   </g>
   <g id="matplotlib.axis_1">
    <g id="xtick_1">
     <g id="line2d_1">
      <path d="M 115.363636 384.48 
L 115.363636 51.84 
" clip-path="url(#p75d43a12c9)" style="fill: none; stroke: #b0b0b0; stroke-width: 0.8; stroke-linecap: square"/>
     </g>
     <g id="line2d_2">
      <defs>
       <path id="m7e3779f733" d="M 0 0 
L 0 3.5 
" style="stroke: #000000; stroke-width: 0.8"/>
      </defs>
      <g>
       <use xlink:href="#m7e3779f733" x="115.363636" y="384.48" style="stroke: #000000; stroke-width: 0.8"/>
      </g>
     </g>
     <g id="text_1">
      <!-- 0.0 -->
      <g transform="translate(107.412074 399.078438) scale(0.1 -0.1)">
       <defs>
        <path id="DejaVuSans-30" d="M 2034 4250 
Q 1547 4250 1301 3770 
Q 1056 3291 1056 2328 
Q 1056 1369 1301 889 
Q 1547 409 2034 409 
Q 2525 409 2770 889 
Q 3016 1369 3016 2328 
Q 3016 3291 2770 3770 
Q 2525 4250 2034 4250 
z
M 2034 4750 
Q 2819 4750 3233 4129 
Q 3647 3509 3647 2328 
Q 3647 1150 3233 529 
Q 2819 -91 2034 -91 
Q 1250 -91 836 529 
Q 422 1150 422 2328 
Q 422 3509 836 4129 
Q 1250 4750 2034 4750 
z
" transform="scale(0.015625)"/>
        <path id="DejaVuSans-2e" d="M 684 794 
L 1344 794 
L 1344 0 
L 684 0 
L 684 794 
z
" transform="scale(0.015625)"/>
       </defs>
       <use xlink:href="#DejaVuSans-30"/>
       <use xlink:href="#DejaVuSans-2e" x="63.623047"/>
       <use xlink:href="#DejaVuSans-30" x="95.410156"/>
      </g>
     </g>
    </g>
    <g id="xtick_2">
     <g id="line2d_3">
      <path d="M 219.526414 384.48 
L 219.526414 51.84 
" clip-path="url(#p75d43a12c9)" style="fill: none; stroke: #b0b0b0; stroke-width: 0.8; stroke-linecap: square"/>
     </g>
     <g id="line2d_4">
      <g>
       <use xlink:href="#m7e3779f733" x="219.526414" y="384.48" style="stroke: #000000; stroke-width: 0.8"/>
      </g>
     </g>
     <g id="text_2">
      <!-- 0.1 -->
      <g transform="translate(211.574852 399.078438) scale(0.1 -0.1)">
       <defs>
        <path id="DejaVuSans-31" d="M 794 531 
L 1825 531 
L 1825 4091 
L 703 3866 
L 703 4441 
L 1819 4666 
L 2450 4666 
L 2450 531 
L 3481 531 
L 3481 0 
L 794 0 
L 794 531 
z
" transform="scale(0.015625)"/>
       </defs>
       <use xlink:href="#DejaVuSans-30"/>
       <use xlink:href="#DejaVuSans-2e" x="63.623047"/>
       <use xlink:href="#DejaVuSans-31" x="95.410156"/>
      </g>
     </g>
    </g>
    <g id="xtick_3">
     <g id="line2d_5">
      <path d="M 323.689192 384.48 
L 323.689192 51.84 
" clip-path="url(#p75d43a12c9)" style="fill: none; stroke: #b0b0b0; stroke-width: 0.8; stroke-linecap: square"/>
     </g>
     <g id="line2d_6">
      <g>
       <use xlink:href="#m7e3779f733" x="323.689192" y="384.48" style="stroke: #000000; stroke-width: 0.8"/>
      </g>
     </g>
     <g id="text_3">
      <!-- 0.2 -->
      <g transform="translate(315.737629 399.078438) scale(0.1 -0.1)">
       <defs>
        <path id="DejaVuSans-32" d="M 1228 531 
L 3431 531 
L 3431 0 
L 469 0 
L 469 531 
Q 828 903 1448 1529 
Q 2069 2156 2228 2338 
Q 2531 2678 2651 2914 
Q 2772 3150 2772 3378 
Q 2772 3750 2511 3984 
Q 2250 4219 1831 4219 
Q 1534 4219 1204 4116 
Q 875 4013 500 3803 
L 500 4441 
Q 881 4594 1212 4672 
Q 1544 4750 1819 4750 
Q 2544 4750 2975 4387 
Q 3406 4025 3406 3419 
Q 3406 3131 3298 2873 
Q 3191 2616 2906 2266 
Q 2828 2175 2409 1742 
Q 1991 1309 1228 531 
z
" transform="scale(0.015625)"/>
       </defs>
       <use xlink:href="#DejaVuSans-30"/>
       <use xlink:href="#DejaVuSans-2e" x="63.623047"/>
       <use xlink:href="#DejaVuSans-32" x="95.410156"/>
      </g>
     </g>
    </g>
    <g id="xtick_4">
     <g id="line2d_7">
      <path d="M 427.851969 384.48 
L 427.851969 51.84 
" clip-path="url(#p75d43a12c9)" style="fill: none; stroke: #b0b0b0; stroke-width: 0.8; stroke-linecap: square"/>
     </g>
     <g id="line2d_8">
      <g>
       <use xlink:href="#m7e3779f733" x="427.851969" y="384.48" style="stroke: #000000; stroke-width: 0.8"/>
      </g>
     </g>
     <g id="text_4">
      <!-- 0.3 -->
      <g transform="translate(419.900407 399.078438) scale(0.1 -0.1)">
       <defs>
        <path id="DejaVuSans-33" d="M 2597 2516 
Q 3050 2419 3304 2112 
Q 3559 1806 3559 1356 
Q 3559 666 3084 287 
Q 2609 -91 1734 -91 
Q 1441 -91 1130 -33 
Q 819 25 488 141 
L 488 750 
Q 750 597 1062 519 
Q 1375 441 1716 441 
Q 2309 441 2620 675 
Q 2931 909 2931 1356 
Q 2931 1769 2642 2001 
Q 2353 2234 1838 2234 
L 1294 2234 
L 1294 2753 
L 1863 2753 
Q 2328 2753 2575 2939 
Q 2822 3125 2822 3475 
Q 2822 3834 2567 4026 
Q 2313 4219 1838 4219 
Q 1578 4219 1281 4162 
Q 984 4106 628 3988 
L 628 4550 
Q 988 4650 1302 4700 
Q 1616 4750 1894 4750 
Q 2613 4750 3031 4423 
Q 3450 4097 3450 3541 
Q 3450 3153 3228 2886 
Q 3006 2619 2597 2516 
z
" transform="scale(0.015625)"/>
       </defs>
       <use xlink:href="#DejaVuSans-30"/>
       <use xlink:href="#DejaVuSans-2e" x="63.623047"/>
       <use xlink:href="#DejaVuSans-33" x="95.410156"/>
      </g>
     </g>
    </g>
    <g id="xtick_5">
     <g id="line2d_9">
      <path d="M 532.014747 384.48 
L 532.014747 51.84 
" clip-path="url(#p75d43a12c9)" style="fill: none; stroke: #b0b0b0; stroke-width: 0.8; stroke-linecap: square"/>
     </g>
     <g id="line2d_10">
      <g>
       <use xlink:href="#m7e3779f733" x="532.014747" y="384.48" style="stroke: #000000; stroke-width: 0.8"/>
      </g>
     </g>
     <g id="text_5">
      <!-- 0.4 -->
      <g transform="translate(524.063185 399.078438) scale(0.1 -0.1)">
       <defs>
        <path id="DejaVuSans-34" d="M 2419 4116 
L 825 1625 
L 2419 1625 
L 2419 4116 
z
M 2253 4666 
L 3047 4666 
L 3047 1625 
L 3713 1625 
L 3713 1100 
L 3047 1100 
L 3047 0 
L 2419 0 
L 2419 1100 
L 313 1100 
L 313 1709 
L 2253 4666 
z
" transform="scale(0.015625)"/>
       </defs>
       <use xlink:href="#DejaVuSans-30"/>
       <use xlink:href="#DejaVuSans-2e" x="63.623047"/>
       <use xlink:href="#DejaVuSans-34" x="95.410156"/>
      </g>
     </g>
    </g>
    <g id="xtick_6">
     <g id="line2d_11">
      <path d="M 636.177525 384.48 
L 636.177525 51.84 
" clip-path="url(#p75d43a12c9)" style="fill: none; stroke: #b0b0b0; stroke-width: 0.8; stroke-linecap: square"/>
     </g>
     <g id="line2d_12">
      <g>
       <use xlink:href="#m7e3779f733" x="636.177525" y="384.48" style="stroke: #000000; stroke-width: 0.8"/>
      </g>
     </g>
     <g id="text_6">
      <!-- 0.5 -->
      <g transform="translate(628.225962 399.078438) scale(0.1 -0.1)">
       <defs>
        <path id="DejaVuSans-35" d="M 691 4666 
L 3169 4666 
L 3169 4134 
L 1269 4134 
L 1269 2991 
Q 1406 3038 1543 3061 
Q 1681 3084 1819 3084 
Q 2600 3084 3056 2656 
Q 3513 2228 3513 1497 
Q 3513 744 3044 326 
Q 2575 -91 1722 -91 
Q 1428 -91 1123 -41 
Q 819 9 494 109 
L 494 744 
Q 775 591 1075 516 
Q 1375 441 1709 441 
Q 2250 441 2565 725 
Q 2881 1009 2881 1497 
Q 2881 1984 2565 2268 
Q 2250 2553 1709 2553 
Q 1456 2553 1204 2497 
Q 953 2441 691 2322 
L 691 4666 
z
" transform="scale(0.015625)"/>
       </defs>
       <use xlink:href="#DejaVuSans-30"/>
       <use xlink:href="#DejaVuSans-2e" x="63.623047"/>
       <use xlink:href="#DejaVuSans-35" x="95.410156"/>
      </g>
     </g>
    </g>
    <g id="text_7">
     <!-- Time (seconds) -->
     <g transform="translate(330.838281 412.756563) scale(0.1 -0.1)">
      <defs>
       <path id="DejaVuSans-54" d="M -19 4666 
L 3928 4666 
L 3928 4134 
L 2272 4134 
L 2272 0 
L 1638 0 
L 1638 4134 
L -19 4134 
L -19 4666 
z
" transform="scale(0.015625)"/>
       <path id="DejaVuSans-69" d="M 603 3500 
L 1178 3500 
L 1178 0 
L 603 0 
L 603 3500 
z
M 603 4863 
L 1178 4863 
L 1178 4134 
L 603 4134 
L 603 4863 
z
" transform="scale(0.015625)"/>
       <path id="DejaVuSans-6d" d="M 3328 2828 
Q 3544 3216 3844 3400 
Q 4144 3584 4550 3584 
Q 5097 3584 5394 3201 
Q 5691 2819 5691 2113 
L 5691 0 
L 5113 0 
L 5113 2094 
Q 5113 2597 4934 2840 
Q 4756 3084 4391 3084 
Q 3944 3084 3684 2787 
Q 3425 2491 3425 1978 
L 3425 0 
L 2847 0 
L 2847 2094 
Q 2847 2600 2669 2842 
Q 2491 3084 2119 3084 
Q 1678 3084 1418 2786 
Q 1159 2488 1159 1978 
L 1159 0 
L 581 0 
L 581 3500 
L 1159 3500 
L 1159 2956 
Q 1356 3278 1631 3431 
Q 1906 3584 2284 3584 
Q 2666 3584 2933 3390 
Q 3200 3197 3328 2828 
z
" transform="scale(0.015625)"/>
       <path id="DejaVuSans-65" d="M 3597 1894 
L 3597 1613 
L 953 1613 
Q 991 1019 1311 708 
Q 1631 397 2203 397 
Q 2534 397 2845 478 
Q 3156 559 3463 722 
L 3463 178 
Q 3153 47 2828 -22 
Q 2503 -91 2169 -91 
Q 1331 -91 842 396 
Q 353 884 353 1716 
Q 353 2575 817 3079 
Q 1281 3584 2069 3584 
Q 2775 3584 3186 3129 
Q 3597 2675 3597 1894 
z
M 3022 2063 
Q 3016 2534 2758 2815 
Q 2500 3097 2075 3097 
Q 1594 3097 1305 2825 
Q 1016 2553 972 2059 
L 3022 2063 
z
" transform="scale(0.015625)"/>
       <path id="DejaVuSans-20" transform="scale(0.015625)"/>
       <path id="DejaVuSans-28" d="M 1984 4856 
Q 1566 4138 1362 3434 
Q 1159 2731 1159 2009 
Q 1159 1288 1364 580 
Q 1569 -128 1984 -844 
L 1484 -844 
Q 1016 -109 783 600 
Q 550 1309 550 2009 
Q 550 2706 781 3412 
Q 1013 4119 1484 4856 
L 1984 4856 
z
" transform="scale(0.015625)"/>
       <path id="DejaVuSans-73" d="M 2834 3397 
L 2834 2853 
Q 2591 2978 2328 3040 
Q 2066 3103 1784 3103 
Q 1356 3103 1142 2972 
Q 928 2841 928 2578 
Q 928 2378 1081 2264 
Q 1234 2150 1697 2047 
L 1894 2003 
Q 2506 1872 2764 1633 
Q 3022 1394 3022 966 
Q 3022 478 2636 193 
Q 2250 -91 1575 -91 
Q 1294 -91 989 -36 
Q 684 19 347 128 
L 347 722 
Q 666 556 975 473 
Q 1284 391 1588 391 
Q 1994 391 2212 530 
Q 2431 669 2431 922 
Q 2431 1156 2273 1281 
Q 2116 1406 1581 1522 
L 1381 1569 
Q 847 1681 609 1914 
Q 372 2147 372 2553 
Q 372 3047 722 3315 
Q 1072 3584 1716 3584 
Q 2034 3584 2315 3537 
Q 2597 3491 2834 3397 
z
" transform="scale(0.015625)"/>
       <path id="DejaVuSans-63" d="M 3122 3366 
L 3122 2828 
Q 2878 2963 2633 3030 
Q 2388 3097 2138 3097 
Q 1578 3097 1268 2742 
Q 959 2388 959 1747 
Q 959 1106 1268 751 
Q 1578 397 2138 397 
Q 2388 397 2633 464 
Q 2878 531 3122 666 
L 3122 134 
Q 2881 22 2623 -34 
Q 2366 -91 2075 -91 
Q 1284 -91 818 406 
Q 353 903 353 1747 
Q 353 2603 823 3093 
Q 1294 3584 2113 3584 
Q 2378 3584 2631 3529 
Q 2884 3475 3122 3366 
z
" transform="scale(0.015625)"/>
       <path id="DejaVuSans-6f" d="M 1959 3097 
Q 1497 3097 1228 2736 
Q 959 2375 959 1747 
Q 959 1119 1226 758 
Q 1494 397 1959 397 
Q 2419 397 2687 759 
Q 2956 1122 2956 1747 
Q 2956 2369 2687 2733 
Q 2419 3097 1959 3097 
z
M 1959 3584 
Q 2709 3584 3137 3096 
Q 3566 2609 3566 1747 
Q 3566 888 3137 398 
Q 2709 -91 1959 -91 
Q 1206 -91 779 398 
Q 353 888 353 1747 
Q 353 2609 779 3096 
Q 1206 3584 1959 3584 
z
" transform="scale(0.015625)"/>
       <path id="DejaVuSans-6e" d="M 3513 2113 
L 3513 0 
L 2938 0 
L 2938 2094 
Q 2938 2591 2744 2837 
Q 2550 3084 2163 3084 
Q 1697 3084 1428 2787 
Q 1159 2491 1159 1978 
L 1159 0 
L 581 0 
L 581 3500 
L 1159 3500 
L 1159 2956 
Q 1366 3272 1645 3428 
Q 1925 3584 2291 3584 
Q 2894 3584 3203 3211 
Q 3513 2838 3513 2113 
z
" transform="scale(0.015625)"/>
       <path id="DejaVuSans-64" d="M 2906 2969 
L 2906 4863 
L 3481 4863 
L 3481 0 
L 2906 0 
L 2906 525 
Q 2725 213 2448 61 
Q 2172 -91 1784 -91 
Q 1150 -91 751 415 
Q 353 922 353 1747 
Q 353 2572 751 3078 
Q 1150 3584 1784 3584 
Q 2172 3584 2448 3432 
Q 2725 3281 2906 2969 
z
M 947 1747 
Q 947 1113 1208 752 
Q 1469 391 1925 391 
Q 2381 391 2643 752 
Q 2906 1113 2906 1747 
Q 2906 2381 2643 2742 
Q 2381 3103 1925 3103 
Q 1469 3103 1208 2742 
Q 947 2381 947 1747 
z
" transform="scale(0.015625)"/>
       <path id="DejaVuSans-29" d="M 513 4856 
L 1013 4856 
Q 1481 4119 1714 3412 
Q 1947 2706 1947 2009 
Q 1947 1309 1714 600 
Q 1481 -109 1013 -844 
L 513 -844 
Q 928 -128 1133 580 
Q 1338 1288 1338 2009 
Q 1338 2731 1133 3434 
Q 928 4138 513 4856 
z
" transform="scale(0.015625)"/>
      </defs>
      <use xlink:href="#DejaVuSans-54"/>
      <use xlink:href="#DejaVuSans-69" x="57.958984"/>
      <use xlink:href="#DejaVuSans-6d" x="85.742188"/>
      <use xlink:href="#DejaVuSans-65" x="183.154297"/>
      <use xlink:href="#DejaVuSans-20" x="244.677734"/>
      <use xlink:href="#DejaVuSans-28" x="276.464844"/>
      <use xlink:href="#DejaVuSans-73" x="315.478516"/>
      <use xlink:href="#DejaVuSans-65" x="367.578125"/>
      <use xlink:href="#DejaVuSans-63" x="429.101562"/>
      <use xlink:href="#DejaVuSans-6f" x="484.082031"/>
      <use xlink:href="#DejaVuSans-6e" x="545.263672"/>
      <use xlink:href="#DejaVuSans-64" x="608.642578"/>
      <use xlink:href="#DejaVuSans-73" x="672.119141"/>
      <use xlink:href="#DejaVuSans-29" x="724.21875"/>
     </g>
    </g>
   </g>
   <g id="matplotlib.axis_2">
    <g id="ytick_1">
     <g id="line2d_13">
      <path d="M 90 370.257459 
L 648 370.257459 
" clip-path="url(#p75d43a12c9)" style="fill: none; stroke: #b0b0b0; stroke-width: 0.8; stroke-linecap: square"/>
     </g>
     <g id="line2d_14">
      <defs>
       <path id="md2b0f94374" d="M 0 0 
L -3.5 0 
" style="stroke: #000000; stroke-width: 0.8"/>
      </defs>
      <g>
       <use xlink:href="#md2b0f94374" x="90" y="370.257459" style="stroke: #000000; stroke-width: 0.8"/>
      </g>
     </g>
     <g id="text_8">
      <!-- −0.5 -->
      <g transform="translate(58.717187 374.056678) scale(0.1 -0.1)">
       <defs>
        <path id="DejaVuSans-2212" d="M 678 2272 
L 4684 2272 
L 4684 1741 
L 678 1741 
L 678 2272 
z
" transform="scale(0.015625)"/>
       </defs>
       <use xlink:href="#DejaVuSans-2212"/>
       <use xlink:href="#DejaVuSans-30" x="83.789062"/>
       <use xlink:href="#DejaVuSans-2e" x="147.412109"/>
       <use xlink:href="#DejaVuSans-35" x="179.199219"/>
      </g>
     </g>
    </g>
    <g id="ytick_2">
     <g id="line2d_15">
      <path d="M 90 318.389891 
L 648 318.389891 
" clip-path="url(#p75d43a12c9)" style="fill: none; stroke: #b0b0b0; stroke-width: 0.8; stroke-linecap: square"/>
     </g>
     <g id="line2d_16">
      <g>
       <use xlink:href="#md2b0f94374" x="90" y="318.389891" style="stroke: #000000; stroke-width: 0.8"/>
      </g>
     </g>
     <g id="text_9">
      <!-- 0.0 -->
      <g transform="translate(67.096875 322.189109) scale(0.1 -0.1)">
       <use xlink:href="#DejaVuSans-30"/>
       <use xlink:href="#DejaVuSans-2e" x="63.623047"/>
       <use xlink:href="#DejaVuSans-30" x="95.410156"/>
      </g>
     </g>
    </g>
    <g id="ytick_3">
     <g id="line2d_17">
      <path d="M 90 266.522322 
L 648 266.522322 
" clip-path="url(#p75d43a12c9)" style="fill: none; stroke: #b0b0b0; stroke-width: 0.8; stroke-linecap: square"/>
     </g>
     <g id="line2d_18">
      <g>
       <use xlink:href="#md2b0f94374" x="90" y="266.522322" style="stroke: #000000; stroke-width: 0.8"/>
      </g>
     </g>
     <g id="text_10">
      <!-- 0.5 -->
      <g transform="translate(67.096875 270.321541) scale(0.1 -0.1)">
       <use xlink:href="#DejaVuSans-30"/>
       <use xlink:href="#DejaVuSans-2e" x="63.623047"/>
       <use xlink:href="#DejaVuSans-35" x="95.410156"/>
      </g>
     </g>
    </g>
    <g id="ytick_4">
     <g id="line2d_19">
      <path d="M 90 214.654754 
L 648 214.654754 
" clip-path="url(#p75d43a12c9)" style="fill: none; stroke: #b0b0b0; stroke-width: 0.8; stroke-linecap: square"/>
     </g>
     <g id="line2d_20">
      <g>
       <use xlink:href="#md2b0f94374" x="90" y="214.654754" style="stroke: #000000; stroke-width: 0.8"/>
      </g>
     </g>
     <g id="text_11">
      <!-- 1.0 -->
      <g transform="translate(67.096875 218.453972) scale(0.1 -0.1)">
       <use xlink:href="#DejaVuSans-31"/>
       <use xlink:href="#DejaVuSans-2e" x="63.623047"/>
       <use xlink:href="#DejaVuSans-30" x="95.410156"/>
      </g>
     </g>
    </g>
    <g id="ytick_5">
     <g id="line2d_21">
      <path d="M 90 162.787185 
L 648 162.787185 
" clip-path="url(#p75d43a12c9)" style="fill: none; stroke: #b0b0b0; stroke-width: 0.8; stroke-linecap: square"/>
     </g>
     <g id="line2d_22">
      <g>
       <use xlink:href="#md2b0f94374" x="90" y="162.787185" style="stroke: #000000; stroke-width: 0.8"/>
      </g>
     </g>
     <g id="text_12">
      <!-- 1.5 -->
      <g transform="translate(67.096875 166.586404) scale(0.1 -0.1)">
       <use xlink:href="#DejaVuSans-31"/>
       <use xlink:href="#DejaVuSans-2e" x="63.623047"/>
       <use xlink:href="#DejaVuSans-35" x="95.410156"/>
      </g>
     </g>
    </g>
    <g id="ytick_6">
     <g id="line2d_23">
      <path d="M 90 110.919617 
L 648 110.919617 
" clip-path="url(#p75d43a12c9)" style="fill: none; stroke: #b0b0b0; stroke-width: 0.8; stroke-linecap: square"/>
     </g>
     <g id="line2d_24">
      <g>
       <use xlink:href="#md2b0f94374" x="90" y="110.919617" style="stroke: #000000; stroke-width: 0.8"/>
      </g>
     </g>
     <g id="text_13">
      <!-- 2.0 -->
      <g transform="translate(67.096875 114.718835) scale(0.1 -0.1)">
       <use xlink:href="#DejaVuSans-32"/>
       <use xlink:href="#DejaVuSans-2e" x="63.623047"/>
       <use xlink:href="#DejaVuSans-30" x="95.410156"/>
      </g>
     </g>
    </g>
    <g id="ytick_7">
     <g id="line2d_25">
      <path d="M 90 59.052048 
L 648 59.052048 
" clip-path="url(#p75d43a12c9)" style="fill: none; stroke: #b0b0b0; stroke-width: 0.8; stroke-linecap: square"/>
     </g>
     <g id="line2d_26">
      <g>
       <use xlink:href="#md2b0f94374" x="90" y="59.052048" style="stroke: #000000; stroke-width: 0.8"/>
      </g>
     </g>
     <g id="text_14">
      <!-- 2.5 -->
      <g transform="translate(67.096875 62.851267) scale(0.1 -0.1)">
       <use xlink:href="#DejaVuSans-32"/>
       <use xlink:href="#DejaVuSans-2e" x="63.623047"/>
       <use xlink:href="#DejaVuSans-35" x="95.410156"/>
      </g>
     </g>
    </g>
    <g id="text_15">
     <!-- Amplitude -->
     <g transform="translate(52.6375 243.782656) rotate(-90) scale(0.1 -0.1)">
      <defs>
       <path id="DejaVuSans-41" d="M 2188 4044 
L 1331 1722 
L 3047 1722 
L 2188 4044 
z
M 1831 4666 
L 2547 4666 
L 4325 0 
L 3669 0 
L 3244 1197 
L 1141 1197 
L 716 0 
L 50 0 
L 1831 4666 
z
" transform="scale(0.015625)"/>
       <path id="DejaVuSans-70" d="M 1159 525 
L 1159 -1331 
L 581 -1331 
L 581 3500 
L 1159 3500 
L 1159 2969 
Q 1341 3281 1617 3432 
Q 1894 3584 2278 3584 
Q 2916 3584 3314 3078 
Q 3713 2572 3713 1747 
Q 3713 922 3314 415 
Q 2916 -91 2278 -91 
Q 1894 -91 1617 61 
Q 1341 213 1159 525 
z
M 3116 1747 
Q 3116 2381 2855 2742 
Q 2594 3103 2138 3103 
Q 1681 3103 1420 2742 
Q 1159 2381 1159 1747 
Q 1159 1113 1420 752 
Q 1681 391 2138 391 
Q 2594 391 2855 752 
Q 3116 1113 3116 1747 
z
" transform="scale(0.015625)"/>
       <path id="DejaVuSans-6c" d="M 603 4863 
L 1178 4863 
L 1178 0 
L 603 0 
L 603 4863 
z
" transform="scale(0.015625)"/>
       <path id="DejaVuSans-74" d="M 1172 4494 
L 1172 3500 
L 2356 3500 
L 2356 3053 
L 1172 3053 
L 1172 1153 
Q 1172 725 1289 603 
Q 1406 481 1766 481 
L 2356 481 
L 2356 0 
L 1766 0 
Q 1100 0 847 248 
Q 594 497 594 1153 
L 594 3053 
L 172 3053 
L 172 3500 
L 594 3500 
L 594 4494 
L 1172 4494 
z
" transform="scale(0.015625)"/>
       <path id="DejaVuSans-75" d="M 544 1381 
L 544 3500 
L 1119 3500 
L 1119 1403 
Q 1119 906 1312 657 
Q 1506 409 1894 409 
Q 2359 409 2629 706 
Q 2900 1003 2900 1516 
L 2900 3500 
L 3475 3500 
L 3475 0 
L 2900 0 
L 2900 538 
Q 2691 219 2414 64 
Q 2138 -91 1772 -91 
Q 1169 -91 856 284 
Q 544 659 544 1381 
z
M 1991 3584 
L 1991 3584 
z
" transform="scale(0.015625)"/>
      </defs>
      <use xlink:href="#DejaVuSans-41"/>
      <use xlink:href="#DejaVuSans-6d" x="68.408203"/>
      <use xlink:href="#DejaVuSans-70" x="165.820312"/>
      <use xlink:href="#DejaVuSans-6c" x="229.296875"/>
      <use xlink:href="#DejaVuSans-69" x="257.080078"/>
      <use xlink:href="#DejaVuSans-74" x="284.863281"/>
      <use xlink:href="#DejaVuSans-75" x="324.072266"/>
      <use xlink:href="#DejaVuSans-64" x="387.451172"/>
      <use xlink:href="#DejaVuSans-65" x="450.927734"/>
     </g>
    </g>
   </g>
   <g id="line2d_27">
    <path d="M 115.363636 325.179215 
L 116.405264 330.569886 
L 117.446892 332.763153 
L 118.48852 335.612713 
L 119.530147 332.297942 
L 120.571775 333.289185 
L 121.613403 333.887862 
L 122.655031 333.167111 
L 123.696659 332.712561 
L 124.738286 329.341173 
L 125.779914 333.064916 
L 126.821542 337.304955 
L 127.86317 337.774411 
L 128.904797 340.528998 
L 129.946425 335.684091 
L 130.988053 338.837389 
L 132.029681 344.06218 
L 133.071309 338.258803 
L 134.112936 335.028125 
L 135.154564 335.385736 
L 136.196192 333.694718 
L 137.23782 333.182295 
L 138.279447 333.192858 
L 139.321075 334.324384 
L 140.362703 341.044432 
L 141.404331 337.094517 
L 142.445959 333.85289 
L 143.487586 332.902014 
L 144.529214 334.921042 
L 145.570842 330.434126 
L 146.61247 326.462584 
L 147.654097 323.844411 
L 148.695725 328.832973 
L 149.737353 338.20356 
L 150.778981 335.550251 
L 151.820609 334.614348 
L 152.862236 337.874928 
L 153.903864 336.81134 
L 154.945492 337.782489 
L 155.98712 334.851395 
L 157.028747 335.100089 
L 158.070375 339.665451 
L 159.112003 330.139779 
L 160.153631 330.268805 
L 161.195259 325.918339 
L 162.236886 327.406549 
L 163.278514 330.447384 
L 164.320142 326.245879 
L 165.36177 330.372306 
L 166.403397 333.578579 
L 167.445025 338.223922 
L 168.486653 334.817736 
L 169.528281 328.80605 
L 170.569909 328.335499 
L 171.611536 334.514501 
L 172.653164 334.261741 
L 173.694792 323.114927 
L 174.73642 316.213205 
L 175.778047 318.430944 
L 176.819675 321.529659 
L 177.861303 327.627087 
L 178.902931 327.912464 
L 179.944559 329.215937 
L 182.027814 316.917063 
L 183.069442 325.080759 
L 184.11107 328.148872 
L 185.152697 316.248495 
L 186.194325 314.065254 
L 187.235953 318.100296 
L 188.277581 317.248247 
L 189.319209 329.591592 
L 190.360836 344.440041 
L 191.402464 335.089126 
L 192.444092 323.448989 
L 193.48572 320.864169 
L 194.527347 325.774399 
L 195.568975 332.997981 
L 196.610603 333.949439 
L 197.652231 325.690863 
L 198.693859 328.367495 
L 199.735486 326.75107 
L 200.777114 324.341606 
L 201.818742 326.989195 
L 203.901997 317.933878 
L 204.943625 320.124472 
L 205.985253 317.292968 
L 207.026881 314.981136 
L 208.068508 329.027974 
L 209.110136 319.615476 
L 210.151764 320.798696 
L 211.193392 317.299546 
L 213.276647 311.811054 
L 214.318275 313.442907 
L 215.359903 323.924944 
L 216.401531 327.043318 
L 217.443158 319.484703 
L 218.484786 307.763194 
L 219.526414 318.217158 
L 220.568042 322.712818 
L 221.60967 322.623432 
L 222.651297 325.123469 
L 223.692925 318.453671 
L 224.734553 309.277574 
L 225.776181 311.179285 
L 226.817808 314.54291 
L 227.859436 318.423076 
L 228.901064 316.671121 
L 229.942692 319.433034 
L 230.98432 325.611801 
L 232.025947 329.283925 
L 233.067575 329.653923 
L 234.109203 328.704045 
L 235.150831 326.560997 
L 236.192458 332.252911 
L 237.234086 336.148192 
L 238.275714 343.382635 
L 239.317342 336.44615 
L 240.35897 334.758866 
L 241.400597 336.073759 
L 242.442225 342.17089 
L 243.483853 338.780333 
L 244.525481 325.496956 
L 245.567108 321.337255 
L 246.608736 331.079653 
L 247.650364 333.596492 
L 248.691992 339.07196 
L 249.73362 342.861452 
L 250.775247 342.07113 
L 251.816875 341.749915 
L 252.858503 340.90196 
L 253.900131 342.626753 
L 254.941758 339.19844 
L 255.983386 341.590322 
L 257.025014 341.689226 
L 258.066642 342.971112 
L 259.10827 343.718061 
L 260.149897 340.966918 
L 261.191525 344.867228 
L 262.233153 347.325474 
L 263.274781 348.187358 
L 264.316408 346.41759 
L 265.358036 341.369727 
L 266.399664 348.239853 
L 267.441292 350.609714 
L 268.48292 350.99894 
L 269.524547 349.0645 
L 270.566175 351.595434 
L 271.607803 352.323547 
L 272.649431 355.228147 
L 273.691058 356.750962 
L 274.732686 353.919542 
L 275.774314 359.259315 
L 276.815942 355.226847 
L 277.85757 351.718605 
L 278.899197 352.83334 
L 279.940825 353.745335 
L 280.982453 348.092426 
L 282.024081 349.234536 
L 283.065708 349.874333 
L 284.107336 344.981823 
L 285.148964 346.096266 
L 286.190592 348.1839 
L 288.273847 350.332145 
L 289.315475 350.692305 
L 290.357103 344.332425 
L 291.398731 342.947893 
L 292.440358 344.094593 
L 293.481986 347.199139 
L 294.523614 348.728071 
L 295.565242 349.54459 
L 296.60687 358.694015 
L 297.648497 359.575273 
L 298.690125 359.930722 
L 299.731753 363.171803 
L 300.773381 356.477545 
L 301.815008 354.128737 
L 302.856636 360.483476 
L 303.898264 359.645742 
L 304.939892 359.331545 
L 305.98152 357.298134 
L 307.023147 356.746976 
L 309.106403 361.446868 
L 310.148031 351.2956 
L 311.189658 350.133182 
L 313.272914 336.56488 
L 314.314542 333.476653 
L 315.356169 341.255226 
L 316.397797 350.115212 
L 317.439425 355.137189 
L 318.481053 352.268453 
L 319.522681 344.621009 
L 320.564308 349.33482 
L 321.605936 358.064916 
L 322.647564 364.399999 
L 323.689192 368.219261 
L 324.730819 367.167647 
L 325.772447 369.36 
L 326.814075 365.873473 
L 327.855703 355.757717 
L 328.897331 347.501995 
L 329.938958 348.027506 
L 330.980586 339.229153 
L 332.022214 335.944124 
L 333.063842 338.229046 
L 334.105469 329.677562 
L 335.147097 324.348965 
L 336.188725 321.141072 
L 338.271981 311.869934 
L 339.313608 299.623866 
L 340.355236 305.435428 
L 341.396864 290.016087 
L 342.438492 289.823474 
L 343.480119 277.585791 
L 344.521747 258.730292 
L 345.563375 247.401679 
L 346.605003 243.179731 
L 347.646631 244.676329 
L 348.688258 230.101202 
L 349.729886 219.710585 
L 351.813142 190.77157 
L 352.854769 177.075521 
L 353.896397 166.144243 
L 354.938025 160.82405 
L 355.979653 151.031778 
L 357.021281 136.422576 
L 359.104536 115.934946 
L 361.187792 82.52068 
L 362.229419 70.759102 
L 363.271047 66.96 
L 364.312675 68.455628 
L 365.354303 67.272987 
L 366.395931 73.400591 
L 367.437558 81.737294 
L 368.479186 87.144955 
L 369.520814 91.818903 
L 370.562442 100.604688 
L 371.604069 114.314698 
L 372.645697 140.026944 
L 373.687325 161.891287 
L 375.770581 212.397004 
L 376.812208 225.962651 
L 377.853836 236.30513 
L 378.895464 253.281802 
L 379.937092 272.492633 
L 380.978719 288.461422 
L 382.020347 297.960698 
L 383.061975 303.087631 
L 384.103603 309.034389 
L 385.145231 316.150246 
L 387.228486 320.639942 
L 388.270114 322.541009 
L 389.311742 325.506648 
L 390.353369 326.974959 
L 391.394997 320.357399 
L 392.436625 321.745533 
L 393.478253 324.395056 
L 394.519881 320.727092 
L 396.603136 316.995838 
L 397.644764 319.08829 
L 398.686392 323.77302 
L 399.728019 324.675758 
L 400.769647 318.874055 
L 401.811275 323.273859 
L 402.852903 332.130739 
L 403.894531 336.017455 
L 404.936158 332.602633 
L 405.977786 341.296886 
L 407.019414 345.808366 
L 408.061042 345.13942 
L 409.102669 339.927755 
L 410.144297 338.143914 
L 411.185925 341.923858 
L 412.227553 343.843331 
L 413.269181 338.360594 
L 415.352436 341.085671 
L 416.394064 337.594228 
L 417.435692 338.245338 
L 418.477319 340.176133 
L 419.518947 344.968974 
L 420.560575 340.534934 
L 421.602203 340.176697 
L 422.643831 344.139082 
L 424.727086 351.108306 
L 425.768714 345.929668 
L 426.810342 346.545318 
L 427.851969 347.935862 
L 428.893597 343.654389 
L 429.935225 330.448857 
L 430.976853 333.650461 
L 432.01848 333.663384 
L 433.060108 339.120774 
L 434.101736 341.723335 
L 435.143364 336.893149 
L 436.184992 335.271624 
L 437.226619 335.119257 
L 438.268247 336.985606 
L 440.351503 346.080486 
L 441.39313 343.831825 
L 442.434758 339.896937 
L 443.476386 340.97273 
L 444.518014 344.152012 
L 445.559642 343.961835 
L 446.601269 340.625176 
L 447.642897 340.481998 
L 448.684525 343.817345 
L 449.726153 340.9257 
L 450.76778 344.765118 
L 451.809408 344.417383 
L 452.851036 343.434344 
L 453.892664 345.261843 
L 454.934292 347.519265 
L 455.975919 332.206216 
L 457.017547 322.527449 
L 458.059175 320.986209 
L 459.100803 323.980169 
L 460.14243 330.42371 
L 461.184058 336.112256 
L 462.225686 336.651631 
L 463.267314 332.981591 
L 464.308942 342.88791 
L 465.350569 334.021768 
L 466.392197 336.285261 
L 467.433825 324.545663 
L 468.475453 321.428096 
L 469.51708 326.25954 
L 470.558708 335.221716 
L 471.600336 333.461151 
L 472.641964 334.63437 
L 473.683592 344.771598 
L 474.725219 348.708514 
L 475.766847 344.276456 
L 476.808475 327.02597 
L 477.850103 319.65569 
L 478.89173 310.627763 
L 479.933358 311.434468 
L 480.974986 319.147431 
L 482.016614 316.03393 
L 483.058242 319.82375 
L 484.099869 322.318589 
L 485.141497 319.755279 
L 486.183125 320.484505 
L 487.224753 325.320973 
L 488.26638 322.45137 
L 489.308008 322.9094 
L 490.349636 319.050436 
L 491.391264 318.63595 
L 492.432892 318.734673 
L 493.474519 320.973739 
L 494.516147 320.999016 
L 495.557775 322.345715 
L 497.64103 321.942457 
L 498.682658 322.24888 
L 499.724286 318.177567 
L 500.765914 319.986761 
L 501.807542 319.977743 
L 502.849169 317.731252 
L 503.890797 313.382246 
L 504.932425 314.483483 
L 505.974053 313.982867 
L 507.01568 311.569835 
L 508.057308 315.465624 
L 509.098936 313.097617 
L 510.140564 311.594816 
L 511.182192 304.544656 
L 512.223819 296.464998 
L 513.265447 299.310527 
L 514.307075 301.202398 
L 515.348703 294.658271 
L 516.39033 301.776356 
L 517.431958 305.34454 
L 518.473586 302.543641 
L 519.515214 297.205639 
L 520.556842 299.514286 
L 521.598469 306.239857 
L 522.640097 303.810097 
L 523.681725 306.086082 
L 524.723353 310.023452 
L 525.76498 311.722108 
L 526.806608 310.562345 
L 527.848236 296.520647 
L 528.889864 296.105683 
L 529.931492 286.678654 
L 530.973119 280.529936 
L 532.014747 283.902111 
L 533.056375 283.685155 
L 534.098003 287.813275 
L 535.13963 286.946108 
L 536.181258 287.788098 
L 537.222886 284.468225 
L 538.264514 286.258829 
L 539.306141 282.506003 
L 540.347769 284.626671 
L 541.389397 283.060782 
L 542.431025 290.418778 
L 543.472653 286.662985 
L 544.51428 286.586194 
L 545.555908 283.802172 
L 546.597536 286.995885 
L 547.639164 282.746531 
L 548.680791 279.824883 
L 549.722419 284.200164 
L 550.764047 283.670577 
L 551.805675 289.574703 
L 552.847303 287.627154 
L 553.88893 286.73151 
L 554.930558 286.749434 
L 555.972186 289.353874 
L 557.013814 289.150331 
L 558.055441 281.525453 
L 559.097069 284.490492 
L 560.138697 284.882438 
L 561.180325 286.600916 
L 562.221953 290.884485 
L 563.26358 288.017269 
L 564.305208 284.502892 
L 565.346836 286.152601 
L 566.388464 281.293182 
L 567.430091 280.872145 
L 568.471719 285.26764 
L 569.513347 283.315813 
L 571.596603 285.541926 
L 572.63823 284.596915 
L 573.679858 290.929365 
L 574.721486 289.170772 
L 575.763114 291.331276 
L 576.804741 291.027311 
L 577.846369 293.523181 
L 578.887997 288.747112 
L 579.929625 289.254808 
L 580.971253 288.965605 
L 582.01288 294.055811 
L 583.054508 290.526336 
L 584.096136 291.563464 
L 585.137764 291.90151 
L 586.179391 295.582252 
L 587.221019 301.879694 
L 588.262647 303.058604 
L 589.304275 303.83392 
L 590.345903 305.452731 
L 591.38753 302.830601 
L 593.470786 310.707974 
L 594.512414 307.773462 
L 595.554041 305.247479 
L 596.595669 302.214232 
L 597.637297 307.11717 
L 598.678925 301.813871 
L 599.720553 303.189213 
L 600.76218 279.944758 
L 601.803808 289.217252 
L 602.845436 302.989492 
L 603.887064 298.238122 
L 604.928691 298.994201 
L 605.970319 308.057172 
L 607.011947 315.460771 
L 608.053575 318.687788 
L 609.095203 323.951472 
L 610.13683 322.101927 
L 611.178458 329.091937 
L 612.220086 343.978949 
L 613.261714 346.61723 
L 614.303341 343.508906 
L 615.344969 339.94932 
L 616.386597 323.843388 
L 617.428225 321.363513 
L 618.469853 316.604891 
L 619.51148 308.148637 
L 620.553108 304.939426 
L 621.594736 309.491595 
L 622.636364 309.577293 
L 622.636364 309.577293 
" clip-path="url(#p75d43a12c9)" style="fill: none; stroke: #0000ff; stroke-width: 1.5; stroke-linecap: square"/>
   </g>
   <g id="line2d_28">
    <path d="M 363.271047 384.48 
L 363.271047 51.84 
" clip-path="url(#p75d43a12c9)" style="fill: none; stroke-dasharray: 5.55,2.4; stroke-dashoffset: 0; stroke: #ff0000; stroke-width: 1.5"/>
   </g>
   <g id="patch_3">
    <path d="M 90 384.48 
L 90 51.84 
" style="fill: none; stroke: #000000; stroke-width: 0.8; stroke-linejoin: miter; stroke-linecap: square"/>
   </g>
   <g id="patch_4">
    <path d="M 648 384.48 
L 648 51.84 
" style="fill: none; stroke: #000000; stroke-width: 0.8; stroke-linejoin: miter; stroke-linecap: square"/>
   </g>
   <g id="patch_5">
    <path d="M 90 384.48 
L 648 384.48 
" style="fill: none; stroke: #000000; stroke-width: 0.8; stroke-linejoin: miter; stroke-linecap: square"/>
   </g>
   <g id="patch_6">
    <path d="M 90 51.84 
L 648 51.84 
" style="fill: none; stroke: #000000; stroke-width: 0.8; stroke-linejoin: miter; stroke-linecap: square"/>
   </g>
   <g id="text_16">
    <!-- Zoomed-in ECG Traces of One Heartbeat (FIR_filtered Clean ECG) -->
    <g transform="translate(173.360625 45.84) scale(0.12 -0.12)">
     <defs>
      <path id="DejaVuSans-5a" d="M 359 4666 
L 4025 4666 
L 4025 4184 
L 1075 531 
L 4097 531 
L 4097 0 
L 288 0 
L 288 481 
L 3238 4134 
L 359 4134 
L 359 4666 
z
" transform="scale(0.015625)"/>
      <path id="DejaVuSans-2d" d="M 313 2009 
L 1997 2009 
L 1997 1497 
L 313 1497 
L 313 2009 
z
" transform="scale(0.015625)"/>
      <path id="DejaVuSans-45" d="M 628 4666 
L 3578 4666 
L 3578 4134 
L 1259 4134 
L 1259 2753 
L 3481 2753 
L 3481 2222 
L 1259 2222 
L 1259 531 
L 3634 531 
L 3634 0 
L 628 0 
L 628 4666 
z
" transform="scale(0.015625)"/>
      <path id="DejaVuSans-43" d="M 4122 4306 
L 4122 3641 
Q 3803 3938 3442 4084 
Q 3081 4231 2675 4231 
Q 1875 4231 1450 3742 
Q 1025 3253 1025 2328 
Q 1025 1406 1450 917 
Q 1875 428 2675 428 
Q 3081 428 3442 575 
Q 3803 722 4122 1019 
L 4122 359 
Q 3791 134 3420 21 
Q 3050 -91 2638 -91 
Q 1578 -91 968 557 
Q 359 1206 359 2328 
Q 359 3453 968 4101 
Q 1578 4750 2638 4750 
Q 3056 4750 3426 4639 
Q 3797 4528 4122 4306 
z
" transform="scale(0.015625)"/>
      <path id="DejaVuSans-47" d="M 3809 666 
L 3809 1919 
L 2778 1919 
L 2778 2438 
L 4434 2438 
L 4434 434 
Q 4069 175 3628 42 
Q 3188 -91 2688 -91 
Q 1594 -91 976 548 
Q 359 1188 359 2328 
Q 359 3472 976 4111 
Q 1594 4750 2688 4750 
Q 3144 4750 3555 4637 
Q 3966 4525 4313 4306 
L 4313 3634 
Q 3963 3931 3569 4081 
Q 3175 4231 2741 4231 
Q 1884 4231 1454 3753 
Q 1025 3275 1025 2328 
Q 1025 1384 1454 906 
Q 1884 428 2741 428 
Q 3075 428 3337 486 
Q 3600 544 3809 666 
z
" transform="scale(0.015625)"/>
      <path id="DejaVuSans-72" d="M 2631 2963 
Q 2534 3019 2420 3045 
Q 2306 3072 2169 3072 
Q 1681 3072 1420 2755 
Q 1159 2438 1159 1844 
L 1159 0 
L 581 0 
L 581 3500 
L 1159 3500 
L 1159 2956 
Q 1341 3275 1631 3429 
Q 1922 3584 2338 3584 
Q 2397 3584 2469 3576 
Q 2541 3569 2628 3553 
L 2631 2963 
z
" transform="scale(0.015625)"/>
      <path id="DejaVuSans-61" d="M 2194 1759 
Q 1497 1759 1228 1600 
Q 959 1441 959 1056 
Q 959 750 1161 570 
Q 1363 391 1709 391 
Q 2188 391 2477 730 
Q 2766 1069 2766 1631 
L 2766 1759 
L 2194 1759 
z
M 3341 1997 
L 3341 0 
L 2766 0 
L 2766 531 
Q 2569 213 2275 61 
Q 1981 -91 1556 -91 
Q 1019 -91 701 211 
Q 384 513 384 1019 
Q 384 1609 779 1909 
Q 1175 2209 1959 2209 
L 2766 2209 
L 2766 2266 
Q 2766 2663 2505 2880 
Q 2244 3097 1772 3097 
Q 1472 3097 1187 3025 
Q 903 2953 641 2809 
L 641 3341 
Q 956 3463 1253 3523 
Q 1550 3584 1831 3584 
Q 2591 3584 2966 3190 
Q 3341 2797 3341 1997 
z
" transform="scale(0.015625)"/>
      <path id="DejaVuSans-66" d="M 2375 4863 
L 2375 4384 
L 1825 4384 
Q 1516 4384 1395 4259 
Q 1275 4134 1275 3809 
L 1275 3500 
L 2222 3500 
L 2222 3053 
L 1275 3053 
L 1275 0 
L 697 0 
L 697 3053 
L 147 3053 
L 147 3500 
L 697 3500 
L 697 3744 
Q 697 4328 969 4595 
Q 1241 4863 1831 4863 
L 2375 4863 
z
" transform="scale(0.015625)"/>
      <path id="DejaVuSans-4f" d="M 2522 4238 
Q 1834 4238 1429 3725 
Q 1025 3213 1025 2328 
Q 1025 1447 1429 934 
Q 1834 422 2522 422 
Q 3209 422 3611 934 
Q 4013 1447 4013 2328 
Q 4013 3213 3611 3725 
Q 3209 4238 2522 4238 
z
M 2522 4750 
Q 3503 4750 4090 4092 
Q 4678 3434 4678 2328 
Q 4678 1225 4090 567 
Q 3503 -91 2522 -91 
Q 1538 -91 948 565 
Q 359 1222 359 2328 
Q 359 3434 948 4092 
Q 1538 4750 2522 4750 
z
" transform="scale(0.015625)"/>
      <path id="DejaVuSans-48" d="M 628 4666 
L 1259 4666 
L 1259 2753 
L 3553 2753 
L 3553 4666 
L 4184 4666 
L 4184 0 
L 3553 0 
L 3553 2222 
L 1259 2222 
L 1259 0 
L 628 0 
L 628 4666 
z
" transform="scale(0.015625)"/>
      <path id="DejaVuSans-62" d="M 3116 1747 
Q 3116 2381 2855 2742 
Q 2594 3103 2138 3103 
Q 1681 3103 1420 2742 
Q 1159 2381 1159 1747 
Q 1159 1113 1420 752 
Q 1681 391 2138 391 
Q 2594 391 2855 752 
Q 3116 1113 3116 1747 
z
M 1159 2969 
Q 1341 3281 1617 3432 
Q 1894 3584 2278 3584 
Q 2916 3584 3314 3078 
Q 3713 2572 3713 1747 
Q 3713 922 3314 415 
Q 2916 -91 2278 -91 
Q 1894 -91 1617 61 
Q 1341 213 1159 525 
L 1159 0 
L 581 0 
L 581 4863 
L 1159 4863 
L 1159 2969 
z
" transform="scale(0.015625)"/>
      <path id="DejaVuSans-46" d="M 628 4666 
L 3309 4666 
L 3309 4134 
L 1259 4134 
L 1259 2759 
L 3109 2759 
L 3109 2228 
L 1259 2228 
L 1259 0 
L 628 0 
L 628 4666 
z
" transform="scale(0.015625)"/>
      <path id="DejaVuSans-49" d="M 628 4666 
L 1259 4666 
L 1259 0 
L 628 0 
L 628 4666 
z
" transform="scale(0.015625)"/>
      <path id="DejaVuSans-52" d="M 2841 2188 
Q 3044 2119 3236 1894 
Q 3428 1669 3622 1275 
L 4263 0 
L 3584 0 
L 2988 1197 
Q 2756 1666 2539 1819 
Q 2322 1972 1947 1972 
L 1259 1972 
L 1259 0 
L 628 0 
L 628 4666 
L 2053 4666 
Q 2853 4666 3247 4331 
Q 3641 3997 3641 3322 
Q 3641 2881 3436 2590 
Q 3231 2300 2841 2188 
z
M 1259 4147 
L 1259 2491 
L 2053 2491 
Q 2509 2491 2742 2702 
Q 2975 2913 2975 3322 
Q 2975 3731 2742 3939 
Q 2509 4147 2053 4147 
L 1259 4147 
z
" transform="scale(0.015625)"/>
      <path id="DejaVuSans-5f" d="M 3263 -1063 
L 3263 -1509 
L -63 -1509 
L -63 -1063 
L 3263 -1063 
z
" transform="scale(0.015625)"/>
     </defs>
     <use xlink:href="#DejaVuSans-5a"/>
     <use xlink:href="#DejaVuSans-6f" x="68.505859"/>
     <use xlink:href="#DejaVuSans-6f" x="129.6875"/>
     <use xlink:href="#DejaVuSans-6d" x="190.869141"/>
     <use xlink:href="#DejaVuSans-65" x="288.28125"/>
     <use xlink:href="#DejaVuSans-64" x="349.804688"/>
     <use xlink:href="#DejaVuSans-2d" x="413.28125"/>
     <use xlink:href="#DejaVuSans-69" x="449.365234"/>
     <use xlink:href="#DejaVuSans-6e" x="477.148438"/>
     <use xlink:href="#DejaVuSans-20" x="540.527344"/>
     <use xlink:href="#DejaVuSans-45" x="572.314453"/>
     <use xlink:href="#DejaVuSans-43" x="635.498047"/>
     <use xlink:href="#DejaVuSans-47" x="705.322266"/>
     <use xlink:href="#DejaVuSans-20" x="782.8125"/>
     <use xlink:href="#DejaVuSans-54" x="814.599609"/>
     <use xlink:href="#DejaVuSans-72" x="860.933594"/>
     <use xlink:href="#DejaVuSans-61" x="902.046875"/>
     <use xlink:href="#DejaVuSans-63" x="963.326172"/>
     <use xlink:href="#DejaVuSans-65" x="1018.306641"/>
     <use xlink:href="#DejaVuSans-73" x="1079.830078"/>
     <use xlink:href="#DejaVuSans-20" x="1131.929688"/>
     <use xlink:href="#DejaVuSans-6f" x="1163.716797"/>
     <use xlink:href="#DejaVuSans-66" x="1224.898438"/>
     <use xlink:href="#DejaVuSans-20" x="1260.103516"/>
     <use xlink:href="#DejaVuSans-4f" x="1291.890625"/>
     <use xlink:href="#DejaVuSans-6e" x="1370.601562"/>
     <use xlink:href="#DejaVuSans-65" x="1433.980469"/>
     <use xlink:href="#DejaVuSans-20" x="1495.503906"/>
     <use xlink:href="#DejaVuSans-48" x="1527.291016"/>
     <use xlink:href="#DejaVuSans-65" x="1602.486328"/>
     <use xlink:href="#DejaVuSans-61" x="1664.009766"/>
     <use xlink:href="#DejaVuSans-72" x="1725.289062"/>
     <use xlink:href="#DejaVuSans-74" x="1766.402344"/>
     <use xlink:href="#DejaVuSans-62" x="1805.611328"/>
     <use xlink:href="#DejaVuSans-65" x="1869.087891"/>
     <use xlink:href="#DejaVuSans-61" x="1930.611328"/>
     <use xlink:href="#DejaVuSans-74" x="1991.890625"/>
     <use xlink:href="#DejaVuSans-20" x="2031.099609"/>
     <use xlink:href="#DejaVuSans-28" x="2062.886719"/>
     <use xlink:href="#DejaVuSans-46" x="2101.900391"/>
     <use xlink:href="#DejaVuSans-49" x="2159.419922"/>
     <use xlink:href="#DejaVuSans-52" x="2188.912109"/>
     <use xlink:href="#DejaVuSans-5f" x="2258.394531"/>
     <use xlink:href="#DejaVuSans-66" x="2308.394531"/>
     <use xlink:href="#DejaVuSans-69" x="2343.599609"/>
     <use xlink:href="#DejaVuSans-6c" x="2371.382812"/>
     <use xlink:href="#DejaVuSans-74" x="2399.166016"/>
     <use xlink:href="#DejaVuSans-65" x="2438.375"/>
     <use xlink:href="#DejaVuSans-72" x="2499.898438"/>
     <use xlink:href="#DejaVuSans-65" x="2538.761719"/>
     <use xlink:href="#DejaVuSans-64" x="2600.285156"/>
     <use xlink:href="#DejaVuSans-20" x="2663.761719"/>
     <use xlink:href="#DejaVuSans-43" x="2695.548828"/>
     <use xlink:href="#DejaVuSans-6c" x="2765.373047"/>
     <use xlink:href="#DejaVuSans-65" x="2793.15625"/>
     <use xlink:href="#DejaVuSans-61" x="2854.679688"/>
     <use xlink:href="#DejaVuSans-6e" x="2915.958984"/>
     <use xlink:href="#DejaVuSans-20" x="2979.337891"/>
     <use xlink:href="#DejaVuSans-45" x="3011.125"/>
     <use xlink:href="#DejaVuSans-43" x="3074.308594"/>
     <use xlink:href="#DejaVuSans-47" x="3144.132812"/>
     <use xlink:href="#DejaVuSans-29" x="3221.623047"/>
    </g>
   </g>
   <g id="legend_1">
    <g id="patch_7">
     <path d="M 514.109375 89.19625 
L 641 89.19625 
Q 643 89.19625 643 87.19625 
L 643 58.84 
Q 643 56.84 641 56.84 
L 514.109375 56.84 
Q 512.109375 56.84 512.109375 58.84 
L 512.109375 87.19625 
Q 512.109375 89.19625 514.109375 89.19625 
z
" style="fill: #ffffff; opacity: 0.8; stroke: #cccccc; stroke-linejoin: miter"/>
    </g>
    <g id="line2d_29">
     <path d="M 516.109375 64.938437 
L 526.109375 64.938437 
L 536.109375 64.938437 
" style="fill: none; stroke: #0000ff; stroke-width: 1.5; stroke-linecap: square"/>
    </g>
    <g id="text_17">
     <!-- Zoomed Heartbeat -->
     <g transform="translate(544.109375 68.438437) scale(0.1 -0.1)">
      <use xlink:href="#DejaVuSans-5a"/>
      <use xlink:href="#DejaVuSans-6f" x="68.505859"/>
      <use xlink:href="#DejaVuSans-6f" x="129.6875"/>
      <use xlink:href="#DejaVuSans-6d" x="190.869141"/>
      <use xlink:href="#DejaVuSans-65" x="288.28125"/>
      <use xlink:href="#DejaVuSans-64" x="349.804688"/>
      <use xlink:href="#DejaVuSans-20" x="413.28125"/>
      <use xlink:href="#DejaVuSans-48" x="445.068359"/>
      <use xlink:href="#DejaVuSans-65" x="520.263672"/>
      <use xlink:href="#DejaVuSans-61" x="581.787109"/>
      <use xlink:href="#DejaVuSans-72" x="643.066406"/>
      <use xlink:href="#DejaVuSans-74" x="684.179688"/>
      <use xlink:href="#DejaVuSans-62" x="723.388672"/>
      <use xlink:href="#DejaVuSans-65" x="786.865234"/>
      <use xlink:href="#DejaVuSans-61" x="848.388672"/>
      <use xlink:href="#DejaVuSans-74" x="909.667969"/>
     </g>
    </g>
    <g id="line2d_30">
     <path d="M 516.109375 79.616562 
L 526.109375 79.616562 
L 536.109375 79.616562 
" style="fill: none; stroke-dasharray: 5.55,2.4; stroke-dashoffset: 0; stroke: #ff0000; stroke-width: 1.5"/>
    </g>
    <g id="text_18">
     <!-- R-Peak -->
     <g transform="translate(544.109375 83.116562) scale(0.1 -0.1)">
      <defs>
       <path id="DejaVuSans-50" d="M 1259 4147 
L 1259 2394 
L 2053 2394 
Q 2494 2394 2734 2622 
Q 2975 2850 2975 3272 
Q 2975 3691 2734 3919 
Q 2494 4147 2053 4147 
L 1259 4147 
z
M 628 4666 
L 2053 4666 
Q 2838 4666 3239 4311 
Q 3641 3956 3641 3272 
Q 3641 2581 3239 2228 
Q 2838 1875 2053 1875 
L 1259 1875 
L 1259 0 
L 628 0 
L 628 4666 
z
" transform="scale(0.015625)"/>
       <path id="DejaVuSans-6b" d="M 581 4863 
L 1159 4863 
L 1159 1991 
L 2875 3500 
L 3609 3500 
L 1753 1863 
L 3688 0 
L 2938 0 
L 1159 1709 
L 1159 0 
L 581 0 
L 581 4863 
z
" transform="scale(0.015625)"/>
      </defs>
      <use xlink:href="#DejaVuSans-52"/>
      <use xlink:href="#DejaVuSans-2d" x="65.482422"/>
      <use xlink:href="#DejaVuSans-50" x="101.566406"/>
      <use xlink:href="#DejaVuSans-65" x="158.244141"/>
      <use xlink:href="#DejaVuSans-61" x="219.767578"/>
      <use xlink:href="#DejaVuSans-6b" x="281.046875"/>
     </g>
    </g>
   </g>
  </g>
 </g>
 <defs>
  <clipPath id="p75d43a12c9">
   <rect x="90" y="51.84" width="558" height="332.64"/>
  </clipPath>
 </defs>
</svg>
